<?xml version="1.0" encoding="UTF-8" standalone="no"?>
<!-- Created with Inkscape (http://www.inkscape.org/) -->

<svg
   version="1.1"
   id="svg1"
   width="1061.7339"
   height="328.87708"
   viewBox="0 0 1061.7339 328.87708"
   xmlns="http://www.w3.org/2000/svg"
   xmlns:svg="http://www.w3.org/2000/svg">
  <defs
     id="defs1" />
  <g
     id="g1"
     transform="translate(-141.13306,-1075.1263)"
     style="fill:#decd87">
    <g
       id="g2"
       transform="translate(24.988362,854.99908)"
       style="fill:#fd7836;fill-opacity:1">
      <path
         style="fill:#fd7836;fill-opacity:1"
         d="m 135,548.62244 c 0,-0.20765 0.7875,-0.99515 1.75,-1.75 1.58606,-1.24387 1.62143,-1.2085 0.37756,0.37756 C 135.82119,548.91575 135,549.44548 135,548.62244 Z m 8.95821,-9.87244 c 2.45201,-2.6125 4.58951,-4.75 4.75,-4.75 0.75088,0 -0.043,0.89783 -4.45821,5.04179 L 139.5,543.5 Z m -23.49933,1.18347 c -0.36253,-0.58659 -0.44468,-1.281 -0.18255,-1.54313 0.26212,-0.26213 0.74306,0.21781 1.06875,1.06653 0.67618,1.76211 0.0999,2.07206 -0.8862,0.4766 z M 152,529.68709 c 0,-0.1721 1.4625,-1.6346 3.25,-3.25 l 3.25,-2.93709 -2.93709,3.25 C 152.82513,529.77946 152,530.45965 152,529.68709 Z M 168.5,512 c 2.14824,-2.2 4.1309,-4 4.4059,-4 0.275,0 -1.25766,1.8 -3.4059,4 -2.14824,2.2 -4.1309,4 -4.4059,4 -0.275,0 1.25766,-1.8 3.4059,-4 z m 13,-14 c 0.99549,-1.1 2.03498,-2 2.30998,-2 0.275,0 -0.31449,0.9 -1.30998,2 -0.99549,1.1 -2.03498,2 -2.30998,2 -0.275,0 0.31449,-0.9 1.30998,-2 z m 61.5,-9.37756 c 0,-0.20765 0.7875,-0.99515 1.75,-1.75 1.58606,-1.24387 1.62143,-1.2085 0.37756,0.37756 C 243.82119,488.91575 243,489.44548 243,488.62244 Z M 194.5,484 c 2.14824,-2.2 4.1309,-4 4.4059,-4 0.275,0 -1.25766,1.8 -3.4059,4 -2.14824,2.2 -4.1309,4 -4.4059,4 -0.275,0 1.25766,-1.8 3.4059,-4 z m 58.5,-3.37756 c 0,-0.20765 0.7875,-0.99515 1.75,-1.75 1.58606,-1.24387 1.62143,-1.2085 0.37756,0.37756 C 253.82119,480.91575 253,481.44548 253,480.62244 Z m -47,-8.93535 c 0,-0.1721 1.4625,-1.6346 3.25,-3.25 l 3.25,-2.93709 -2.93709,3.25 C 206.82513,471.77946 206,472.45965 206,471.68709 Z m 10,-11 c 0,-0.1721 1.4625,-1.6346 3.25,-3.25 l 3.25,-2.93709 -2.93709,3.25 C 216.82513,460.77946 216,461.45965 216,460.68709 Z m 70,-7.06465 c 0,-0.20765 0.7875,-0.99515 1.75,-1.75 1.58606,-1.24387 1.62143,-1.2085 0.37756,0.37756 C 286.82119,453.91575 286,454.44548 286,453.62244 Z m 250.7277,-3.34417 c 1.77523,-0.22091 4.92523,-0.22454 7,-0.008 2.07476,0.21648 0.6223,0.39722 -3.2277,0.40166 -3.85,0.004 -5.54754,-0.17268 -3.7723,-0.39359 z M 292,448.62244 c 0,-0.20765 0.7875,-0.99515 1.75,-1.75 1.58606,-1.24387 1.62143,-1.2085 0.37756,0.37756 C 292.82119,448.91575 292,449.44548 292,448.62244 Z m 328.25,-0.35748 c 2.6125,-0.206 6.8875,-0.206 9.5,0 2.6125,0.206 0.475,0.37454 -4.75,0.37454 -5.225,0 -7.3625,-0.16854 -4.75,-0.37454 z m 144.5625,0.0519 c 0.72187,-0.28887 1.58438,-0.25335 1.91667,0.0789 0.33229,0.33229 -0.25834,0.56864 -1.3125,0.52522 -1.16495,-0.048 -1.4019,-0.28494 -0.60417,-0.60416 z m 293.4677,-0.0532 c 2.6291,-0.20668 6.6791,-0.20418 9,0.006 2.3209,0.20972 0.1698,0.37882 -4.7802,0.37577 -4.95,-0.003 -6.8489,-0.17464 -4.2198,-0.38131 z M 614.47191,382.5 c 1.1e-4,-36.3 0.12508,-51.00477 0.27771,-32.67726 0.15264,18.32751 0.15255,48.02751 -1.9e-4,66 C 614.59668,433.79523 614.4718,418.8 614.47191,382.5 Z m 278.95934,42 c 6.6e-4,-13.2 0.14295,-18.46169 0.31621,-11.69265 0.17326,6.76904 0.17273,17.56904 -0.001,24 -0.17391,6.43096 -0.31567,0.89265 -0.31502,-12.30735 z m 262.64765,21.91667 c 0.048,-1.16495 0.285,-1.4019 0.6042,-0.60417 0.2889,0.72187 0.2534,1.58438 -0.079,1.91667 -0.3323,0.33229 -0.5687,-0.25834 -0.5253,-1.3125 z M 230.5,445 c 0.99549,-1.1 2.03498,-2 2.30998,-2 0.275,0 -0.31449,0.9 -1.30998,2 -0.99549,1.1 -2.03498,2 -2.30998,2 -0.275,0 0.31449,-0.9 1.30998,-2 z m 488.82007,-4 c 0,-3.575 0.1815,-5.0375 0.40333,-3.25 0.22182,1.7875 0.22182,4.7125 0,6.5 -0.22183,1.7875 -0.40333,0.325 -0.40333,-3.25 z m 71.11702,0.75 -2.93709,-3.25 3.25,2.93709 c 1.7875,1.6154 3.25,3.0779 3.25,3.25 0,0.77256 -0.82513,0.0924 -3.56291,-2.93709 z M 711,441.5 c 1.29175,-1.375 2.57363,-2.5 2.84863,-2.5 0.275,0 -0.55688,1.125 -1.84863,2.5 -1.29175,1.375 -2.57363,2.5 -2.84863,2.5 -0.275,0 0.55688,-1.125 1.84863,-2.5 z m 123,2.12244 c 0,-0.20765 0.7875,-0.99515 1.75,-1.75 1.58606,-1.24387 1.62143,-1.2085 0.37756,0.37756 C 834.82119,443.91575 834,444.44548 834,443.62244 Z M 998.87244,442.25 c -1.24387,-1.58606 -1.2085,-1.62143 0.37756,-0.37756 1.6657,1.30637 2.1955,2.12756 1.3724,2.12756 -0.2076,0 -0.99511,-0.7875 -1.74996,-1.75 z m 157.43746,-3.75 c 0.01,-3.3 0.1923,-4.52944 0.4148,-2.73209 0.2226,1.79735 0.218,4.49735 -0.01,6 -0.2281,1.50265 -0.4102,0.0321 -0.4046,-3.26791 z M 302,440.62244 c 0,-0.20765 0.7875,-0.99515 1.75,-1.75 1.58606,-1.24387 1.62143,-1.2085 0.37756,0.37756 C 302.82119,440.91575 302,441.44548 302,440.62244 Z M 1045.5,439 c 0.9955,-1.1 2.035,-2 2.31,-2 0.275,0 -0.3145,0.9 -1.31,2 -0.9955,1.1 -2.035,2 -2.31,2 -0.275,0 0.3145,-0.9 1.31,-2 z M 840,437.5 c 1.29175,-1.375 2.57363,-2.5 2.84863,-2.5 0.275,0 -0.55688,1.125 -1.84863,2.5 -1.29175,1.375 -2.57363,2.5 -2.84863,2.5 -0.275,0 0.55688,-1.125 1.84863,-2.5 z M 239.5,435 c 0.99549,-1.1 2.03498,-2 2.30998,-2 0.275,0 -0.31449,0.9 -1.30998,2 -0.99549,1.1 -2.03498,2 -2.30998,2 -0.275,0 0.31449,-0.9 1.30998,-2 z m 476.5,0.62244 c 0,-0.20765 0.7875,-0.99515 1.75,-1.75 1.58606,-1.24387 1.62143,-1.2085 0.37756,0.37756 C 716.82119,435.91575 716,436.44548 716,435.62244 Z M 783,433 c -0.90129,-0.58246 -1.02463,-0.97549 -0.30902,-0.98469 0.65504,-0.008 1.4691,0.43469 1.80902,0.98469 0.7673,1.24153 0.42112,1.24153 -1.5,0 z m -426.74782,-3.5 c 0.0111,-2.2 0.21589,-2.98225 0.45508,-1.73834 0.23919,1.24391 0.23011,3.04391 -0.0202,4 -0.25029,0.95609 -0.446,-0.0617 -0.4349,-2.26166 z M 870.3605,424 c 0,-5.225 0.16854,-7.3625 0.37454,-4.75 0.206,2.6125 0.206,6.8875 0,9.5 -0.206,2.6125 -0.37454,0.475 -0.37454,-4.75 z m -65.1105,7.31067 c 0.9625,-0.25152 2.5375,-0.25152 3.5,0 0.9625,0.25153 0.175,0.45733 -1.75,0.45733 -1.925,0 -2.7125,-0.2058 -1.75,-0.45733 z M 1093.1949,424.5 c 0.02,-1.65 0.2445,-2.20394 0.4981,-1.23097 0.2535,0.97297 0.2369,2.32297 -0.037,3 -0.2739,0.67703 -0.4813,-0.11903 -0.461,-1.76903 z M 248,425.62244 c 0,-0.20765 0.7875,-0.99515 1.75,-1.75 1.58606,-1.24387 1.62143,-1.2085 0.37756,0.37756 C 248.82119,425.91575 248,426.44548 248,425.62244 Z M 790.87244,424.25 c -1.24387,-1.58606 -1.2085,-1.62143 0.37756,-0.37756 0.9625,0.75485 1.75,1.54235 1.75,1.75 0,0.82304 -0.82119,0.29331 -2.12756,-1.37244 z m -273.94813,-3 -2.42431,-2.75 2.75,2.42431 c 2.57029,2.26589 3.20859,3.07569 2.42431,3.07569 -0.17912,0 -1.41662,-1.2375 -2.75,-2.75 z M 563,421.5 c 1.29175,-1.375 2.57363,-2.5 2.84863,-2.5 0.275,0 -0.55688,1.125 -1.84863,2.5 -1.29175,1.375 -2.57363,2.5 -2.84863,2.5 -0.275,0 0.55688,-1.125 1.84863,-2.5 z m -417.25,0.753 c 6.7375,-0.17301 17.7625,-0.17301 24.5,0 6.7375,0.17301 1.225,0.31456 -12.25,0.31456 -13.475,0 -18.9875,-0.14155 -12.25,-0.31456 z m 843.32895,-0.83633 c 0.048,-1.16495 0.28494,-1.4019 0.60416,-0.60417 0.28887,0.72187 0.25335,1.58438 -0.0789,1.91667 -0.33229,0.33229 -0.56864,-0.25834 -0.52522,-1.3125 z M 1010.1949,410.5 c 0.02,-1.65 0.2445,-2.20394 0.4981,-1.23097 0.2535,0.97297 0.2369,2.32297 -0.037,3 -0.2739,0.67703 -0.4813,-0.11903 -0.461,-1.76903 z M 852.15789,409 c 0,-1.375 0.22698,-1.9375 0.50439,-1.25 0.27741,0.6875 0.27741,1.8125 0,2.5 -0.27741,0.6875 -0.50439,0.125 -0.50439,-1.25 z m 241.00001,-3 c 0,-1.375 0.227,-1.9375 0.5044,-1.25 0.2774,0.6875 0.2774,1.8125 0,2.5 -0.2774,0.6875 -0.5044,0.125 -0.5044,-1.25 z M 577.25,404.26101 c 3.1625,-0.19845 8.3375,-0.19845 11.5,0 3.1625,0.19845 0.575,0.36082 -5.75,0.36082 -6.325,0 -8.9125,-0.16237 -5.75,-0.36082 z M 831.27236,399 c 0,-2.475 0.19502,-3.4875 0.43337,-2.25 0.23836,1.2375 0.23836,3.2625 0,4.5 -0.23835,1.2375 -0.43337,0.225 -0.43337,-2.25 z m -112.90713,-6.5 c 0.003,-5.5 0.17053,-7.62242 0.37317,-4.71648 0.20265,2.90594 0.20052,7.40594 -0.005,10 -0.20525,2.59406 -0.37104,0.21648 -0.36844,-5.28352 z m 374.79267,5.5 c 0,-1.375 0.227,-1.9375 0.5044,-1.25 0.2774,0.6875 0.2774,1.8125 0,2.5 -0.2774,0.6875 -0.5044,0.125 -0.5044,-1.25 z M 944.92431,396.25 942.5,393.5 l 2.75,2.42431 c 1.5125,1.33338 2.75,2.57088 2.75,2.75 0,0.78428 -0.8098,0.14598 -3.07569,-2.42431 z m -702.05187,-2 c -1.24387,-1.58606 -1.2085,-1.62143 0.37756,-0.37756 0.9625,0.75485 1.75,1.54235 1.75,1.75 0,0.82304 -0.82119,0.29331 -2.12756,-1.37244 z m 627.50932,-9.75 c 0.002,-6.6 0.16382,-9.16987 0.35965,-5.71081 0.19583,3.45905 0.19422,8.85905 -0.004,12 -0.19781,3.14094 -0.35803,0.31081 -0.35606,-6.28919 z m 223.04704,-12 c 7e-4,-12.65 0.144,-17.68711 0.3185,-11.19358 0.1744,6.49353 0.1738,16.84353 0,23 -0.1752,6.15647 -0.3179,0.84358 -0.3172,-11.80642 z m -935.01166,19.14467 c -0.28605,-0.74543 -0.35863,-4.23293 -0.16129,-7.75 l 0.35879,-6.39467 0.19268,7.23157 0.19268,7.23157 23.25,0.28778 23.25,0.28778 -23.28138,0.23065 c -18.82746,0.18652 -23.38089,-0.0286 -23.80148,-1.12468 z m 956.66176,-1.228 c 0.048,-1.16495 0.285,-1.4019 0.6042,-0.60417 0.2889,0.72187 0.2534,1.58438 -0.079,1.91667 -0.3323,0.33229 -0.5687,-0.25834 -0.5253,-1.3125 z m -262.99995,-3 c 0.048,-1.16495 0.28494,-1.4019 0.60416,-0.60417 0.28887,0.72187 0.25335,1.58438 -0.0789,1.91667 -0.33229,0.33229 -0.56864,-0.25834 -0.52522,-1.3125 z M 504.32814,380.5 c 0.004,-3.85 0.18518,-5.30246 0.40166,-3.2277 0.21647,2.07477 0.21284,5.22477 -0.008,7 -0.22091,1.77524 -0.39803,0.0777 -0.39359,-3.7723 z m 672.75076,-3.08333 c 0.048,-1.16495 0.285,-1.4019 0.6042,-0.60417 0.2889,0.72187 0.2534,1.58438 -0.079,1.91667 -0.3323,0.33229 -0.5687,-0.25834 -0.5253,-1.3125 z m -278.80987,-1.10966 c 0.97297,-0.25354 2.32297,-0.23687 3,0.0371 0.67703,0.27393 -0.11903,0.48137 -1.76903,0.46099 -1.65,-0.0204 -2.20394,-0.2445 -1.23097,-0.49804 z M 893.32814,369.5 c 0.004,-3.85 0.18518,-5.30246 0.40166,-3.2277 0.21647,2.07477 0.21284,5.22477 -0.008,7 -0.22091,1.77524 -0.39803,0.0777 -0.39359,-3.7723 z M 791,372.5 c 1.29175,-1.375 2.57363,-2.5 2.84863,-2.5 0.275,0 -0.55688,1.125 -1.84863,2.5 -1.29175,1.375 -2.57363,2.5 -2.84863,2.5 -0.275,0 0.55688,-1.125 1.84863,-2.5 z m 332,0 c 1.2917,-1.375 2.5736,-2.5 2.8486,-2.5 0.275,0 -0.5569,1.125 -1.8486,2.5 -1.2917,1.375 -2.5736,2.5 -2.8486,2.5 -0.275,0 0.5569,-1.125 1.8486,-2.5 z M 396.5,371 c 0.99549,-1.1 2.03498,-2 2.30998,-2 0.275,0 -0.31449,0.9 -1.30998,2 -0.99549,1.1 -2.03498,2 -2.30998,2 -0.275,0 0.31449,-0.9 1.30998,-2 z m 753.905,-0.25 -1.905,-2.25 2.25,1.90499 c 2.1144,1.79022 2.7052,2.59501 1.905,2.59501 -0.1898,0 -1.2023,-1.0125 -2.25,-2.25 z m -668.32605,-1.33333 c 0.048,-1.16495 0.28494,-1.4019 0.60416,-0.60417 0.28887,0.72187 0.25335,1.58438 -0.0789,1.91667 -0.33229,0.33229 -0.56864,-0.25834 -0.52522,-1.3125 z M 375.40499,367.75 373.5,365.5 l 2.25,1.90499 c 1.2375,1.04774 2.25,2.06024 2.25,2.25 0,0.80025 -0.80479,0.20945 -2.59501,-1.90499 z M 303.5,366 c 0.99549,-1.1 2.03498,-2 2.30998,-2 0.275,0 -0.31449,0.9 -1.30998,2 -0.99549,1.1 -2.03498,2 -2.30998,2 -0.275,0 0.31449,-0.9 1.30998,-2 z m 830.3125,0.31689 c 0.7219,-0.28887 1.5844,-0.25335 1.9167,0.0789 0.3323,0.33229 -0.2584,0.56864 -1.3125,0.52522 -1.165,-0.048 -1.4019,-0.28494 -0.6042,-0.60416 z m 7,0 c 0.7219,-0.28887 1.5844,-0.25335 1.9167,0.0789 0.3323,0.33229 -0.2584,0.56864 -1.3125,0.52522 -1.165,-0.048 -1.4019,-0.28494 -0.6042,-0.60416 z M 636.37407,353.5 c 0.002,-6.05 0.16696,-8.39607 0.36601,-5.21349 0.19905,3.18258 0.1972,8.13258 -0.004,11 -0.20131,2.86742 -0.36417,0.26349 -0.36191,-5.78651 z M 145,362.27747 c 44.85432,-0.69648 81.768,-0.70895 81.34619,-0.0275 -0.25532,0.4125 -22.60017,0.64857 -49.65521,0.5246 C 149.63594,362.65063 135.375,362.42692 145,362.27747 Z M 365.45295,358.75 361.5,354.5 l 4.25,3.95295 c 3.95246,3.6762 4.70953,4.54705 3.95295,4.54705 -0.16338,0 -2.07588,-1.9125 -4.25,-4.25 z M 423.5,344 c 10.43914,-10.45 19.20526,-19 19.48026,-19 0.275,0 -8.04112,8.55 -18.48026,19 -10.43914,10.45 -19.20526,19 -19.48026,19 -0.275,0 8.04112,-8.55 18.48026,-19 z m 546.57895,16.41667 c 0.048,-1.16495 0.28494,-1.4019 0.60416,-0.60417 0.28887,0.72187 0.25335,1.58438 -0.0789,1.91667 -0.33229,0.33229 -0.56864,-0.25834 -0.52522,-1.3125 z M 1119,357.5 c 1.2917,-1.375 2.5736,-2.5 2.8486,-2.5 0.275,0 -0.5569,1.125 -1.8486,2.5 -1.2917,1.375 -2.5736,2.5 -2.8486,2.5 -0.275,0 0.5569,-1.125 1.8486,-2.5 z M 946.232,356 c 0,-1.925 0.2058,-2.7125 0.45733,-1.75 0.25152,0.9625 0.25152,2.5375 0,3.5 -0.25153,0.9625 -0.45733,0.175 -0.45733,-1.75 z m -52.86677,-7.5 c 0.003,-5.5 0.17053,-7.62242 0.37317,-4.71648 0.20265,2.90594 0.20052,7.40594 -0.005,10 -0.20525,2.59406 -0.37104,0.21648 -0.36844,-5.28352 z m 219.90717,5.5 c 0,-2.475 0.195,-3.4875 0.4333,-2.25 0.2384,1.2375 0.2384,3.2625 0,4.5 -0.2383,1.2375 -0.4333,0.225 -0.4333,-2.25 z M 662.75,349.26276 c 2.8875,-0.202 7.6125,-0.202 10.5,0 2.8875,0.202 0.525,0.36728 -5.25,0.36728 -5.775,0 -8.1375,-0.16528 -5.25,-0.36728 z m 65.0625,0.0541 c 0.72187,-0.28887 1.58438,-0.25335 1.91667,0.0789 0.33229,0.33229 -0.25834,0.56864 -1.3125,0.52522 -1.16495,-0.048 -1.4019,-0.28494 -0.60417,-0.60416 z m 7.45653,-0.01 c 0.97297,-0.25354 2.32297,-0.23687 3,0.0371 0.67703,0.27393 -0.11903,0.48137 -1.76903,0.46099 -1.65,-0.0204 -2.20394,-0.2445 -1.23097,-0.49804 z m 320.48097,-0.0442 c 2.8875,-0.202 7.6125,-0.202 10.5,0 2.8875,0.202 0.525,0.36728 -5.25,0.36728 -5.775,0 -8.1375,-0.16528 -5.25,-0.36728 z M 322,346.5 c 1.29175,-1.375 2.57363,-2.5 2.84863,-2.5 0.275,0 -0.55688,1.125 -1.84863,2.5 -1.29175,1.375 -2.57363,2.5 -2.84863,2.5 -0.275,0 0.55688,-1.125 1.84863,-2.5 z m 30.87244,0.75 c -1.24387,-1.58606 -1.2085,-1.62143 0.37756,-0.37756 1.66575,1.30637 2.19548,2.12756 1.37244,2.12756 -0.20765,0 -0.99515,-0.7875 -1.75,-1.75 z m -207.12244,6e-4 c 16.0875,-0.15445 42.4125,-0.15445 58.5,0 16.0875,0.15444 2.925,0.2808 -29.25,0.2808 -32.175,0 -45.3375,-0.12636 -29.25,-0.2808 z m 663.0625,0.0663 c 0.72187,-0.28887 1.58438,-0.25335 1.91667,0.0789 0.33229,0.33229 -0.25834,0.56864 -1.3125,0.52522 -1.16495,-0.048 -1.4019,-0.28494 -0.60417,-0.60416 z m 6.9375,0.0208 c 0.6875,-0.27741 1.8125,-0.27741 2.5,0 0.6875,0.27741 0.125,0.50439 -1.25,0.50439 -1.375,0 -1.9375,-0.22698 -1.25,-0.50439 z m 323.0625,-0.0208 c 0.7219,-0.28887 1.5844,-0.25335 1.9167,0.0789 0.3323,0.33229 -0.2584,0.56864 -1.3125,0.52522 -1.165,-0.048 -1.4019,-0.28494 -0.6042,-0.60416 z M 517,344.62244 c 0,-0.20765 0.7875,-0.99515 1.75,-1.75 1.58606,-1.24387 1.62143,-1.2085 0.37756,0.37756 C 517.82119,344.91575 517,345.44548 517,344.62244 Z M 331,337.5 c 1.86578,-1.925 3.61733,-3.5 3.89233,-3.5 0.275,0 -1.02655,1.575 -2.89233,3.5 -1.86578,1.925 -3.61733,3.5 -3.89233,3.5 -0.275,0 1.02655,-1.575 2.89233,-3.5 z m 564.75,0.83772 c 0.6875,-0.27741 1.8125,-0.27741 2.5,0 0.6875,0.27741 0.125,0.50439 -1.25,0.50439 -1.375,0 -1.9375,-0.22698 -1.25,-0.50439 z m 8.51903,-0.0307 c 0.97297,-0.25354 2.32297,-0.23687 3,0.0371 0.67703,0.27393 -0.11903,0.48137 -1.76903,0.46099 -1.65,-0.0204 -2.20394,-0.2445 -1.23097,-0.49804 z M 539.25,335.31067 c 0.9625,-0.25152 2.5375,-0.25152 3.5,0 0.9625,0.25153 0.175,0.45733 -1.75,0.45733 -1.925,0 -2.7125,-0.2058 -1.75,-0.45733 z M 499,332.5 c 1.29175,-1.375 2.57363,-2.5 2.84863,-2.5 0.275,0 -0.55688,1.125 -1.84863,2.5 -1.29175,1.375 -2.57363,2.5 -2.84863,2.5 -0.275,0 0.55688,-1.125 1.84863,-2.5 z M 340.5,328 c 2.70865,-2.75 5.14982,-5 5.42482,-5 0.275,0 -1.71617,2.25 -4.42482,5 -2.70865,2.75 -5.14982,5 -5.42482,5 -0.275,0 1.71617,-2.25 4.42482,-5 z m 238.93709,1.75 -2.93709,-3.25 3.25,2.93709 c 1.7875,1.6154 3.25,3.0779 3.25,3.25 0,0.77256 -0.82513,0.0924 -3.56291,-2.93709 z M 361.5,325 c 2.14824,-2.2 4.1309,-4 4.4059,-4 0.275,0 -1.25766,1.8 -3.4059,4 -2.14824,2.2 -4.1309,4 -4.4059,4 -0.275,0 1.25766,-1.8 3.4059,-4 z m 274.68025,-2.18664 c -0.17819,-5.62161 -0.21741,-5.69126 -3.43025,-6.08996 l -3.25,-0.40333 3.28138,-0.16003 c 3.90974,-0.19069 4.47248,0.87078 3.95868,7.46702 L 636.3605,328.5 Z M 761.15789,320 c 0,-1.375 0.22698,-1.9375 0.50439,-1.25 0.27741,0.6875 0.27741,1.8125 0,2.5 -0.27741,0.6875 -0.50439,0.125 -0.50439,-1.25 z m 174.65461,-1.68311 c 0.72187,-0.28887 1.58438,-0.25335 1.91667,0.0789 0.33229,0.33229 -0.25834,0.56864 -1.3125,0.52522 -1.16495,-0.048 -1.4019,-0.28494 -0.60417,-0.60416 z M 352,316.68709 c 0,-0.1721 1.4625,-1.6346 3.25,-3.25 l 3.25,-2.93709 -2.93709,3.25 C 352.82513,316.77946 352,317.45965 352,316.68709 Z m 72,-0.0647 c 0,-0.20765 0.7875,-0.99515 1.75,-1.75 1.58606,-1.24387 1.62143,-1.2085 0.37756,0.37756 -1.30637,1.6658 -2.12756,2.19553 -2.12756,1.37249 z m 339.75,-0.28472 c 0.6875,-0.27741 1.8125,-0.27741 2.5,0 0.6875,0.27741 0.125,0.50439 -1.25,0.50439 -1.375,0 -1.9375,-0.22698 -1.25,-0.50439 z m -226.0223,-1.05945 c 1.77523,-0.22091 4.92523,-0.22454 7,-0.008 2.07476,0.21648 0.6223,0.39722 -3.2277,0.40166 -3.85,0.004 -5.54754,-0.17268 -3.7723,-0.39359 z M 362.76166,290.29274 c 1.24391,-0.23919 3.04391,-0.23011 4,0.0202 0.95609,0.25029 -0.0617,0.446 -2.26166,0.4349 -2.2,-0.0111 -2.98225,-0.21589 -1.73834,-0.45508 z M 389.5,280 c 0.99549,-1.1 2.03498,-2 2.30998,-2 0.275,0 -0.31449,0.9 -1.30998,2 -0.99549,1.1 -2.03498,2 -2.30998,2 -0.275,0 0.31449,-0.9 1.30998,-2 z m -60.22764,-25 c 0,-2.475 0.19502,-3.4875 0.43337,-2.25 0.23836,1.2375 0.23836,3.2625 0,4.5 -0.23835,1.2375 -0.43337,0.225 -0.43337,-2.25 z M 339,230.62244 c 0,-0.20765 0.7875,-0.99515 1.75,-1.75 1.58606,-1.24387 1.62143,-1.2085 0.37756,0.37756 C 339.82119,230.91575 339,231.44548 339,230.62244 Z"
         id="path4" />
      <path
         style="fill:#fd7836;fill-opacity:1"
         d="m 127.87244,545.25 c -1.24387,-1.58606 -1.2085,-1.62143 0.37756,-0.37756 0.9625,0.75485 1.75,1.54235 1.75,1.75 0,0.82304 -0.82119,0.29331 -2.12756,-1.37244 z M 137.5,545 c 0.99549,-1.1 2.03498,-2 2.30998,-2 0.275,0 -0.31449,0.9 -1.30998,2 -0.99549,1.1 -2.03498,2 -2.30998,2 -0.275,0 0.31449,-0.9 1.30998,-2 z m -14.62756,-3.75 c -1.24387,-1.58606 -1.2085,-1.62143 0.37756,-0.37756 0.9625,0.75485 1.75,1.54235 1.75,1.75 0,0.82304 -0.82119,0.29331 -2.12756,-1.37244 z M 149,532.62244 c 0,-0.20765 0.7875,-0.99515 1.75,-1.75 1.58606,-1.24387 1.62143,-1.2085 0.37756,0.37756 C 149.82119,532.91575 149,533.44548 149,532.62244 Z M 159.95821,520.75 c 2.45201,-2.6125 4.58951,-4.75 4.75,-4.75 0.75088,0 -0.043,0.89783 -4.45821,5.04179 L 155.5,525.5 Z m -23.54663,-5 c 1.55419,-2.0625 2.92239,-3.75 3.04044,-3.75 0.82753,0 -0.0403,3.73117 -1.11869,4.80952 C 137.6,517.54286 137,517.83061 137,517.44898 c 0,-0.38163 -0.7682,-0.0763 -1.70711,0.67858 -0.93892,0.75484 -0.43551,-0.31506 1.11869,-2.37756 z m 4.23908,-4.21797 c -0.30982,-0.80739 -0.22638,-1.67622 0.18543,-1.93073 0.41181,-0.25451 0.81419,0.40608 0.89418,1.46798 0.17299,2.29656 -0.29838,2.4986 -1.07961,0.46275 z M 144,509.05902 c 0,-0.51754 0.44485,-1.21592 0.98855,-1.55194 0.56686,-0.35034 0.7345,0.0511 0.39301,0.94098 C 144.71677,510.18048 144,510.49745 144,509.05902 Z M 176,503.5 c 1.86578,-1.925 3.61733,-3.5 3.89233,-3.5 0.275,0 -1.02655,1.575 -2.89233,3.5 -1.86578,1.925 -3.61733,3.5 -3.89233,3.5 -0.275,0 1.02655,-1.575 2.89233,-3.5 z m 9.5,-10.5 c 2.70865,-2.75 5.14982,-5 5.42482,-5 0.275,0 -1.71617,2.25 -4.42482,5 -2.70865,2.75 -5.14982,5 -5.42482,5 -0.275,0 1.71617,-2.25 4.42482,-5 z m 87.72619,-2.57366 c 0.94941,-0.99401 2.00045,-1.53304 2.33565,-1.19784 0.3352,0.3352 -0.44159,1.14849 -1.72619,1.80729 -2.23286,1.14512 -2.25968,1.1183 -0.60946,-0.60945 z m -113.23646,-8.1881 c 1.18976,-1.79396 2.57879,-3.00491 3.08674,-2.69098 1.16758,0.7216 1.20524,1.5339 0.0558,1.20274 -0.47727,-0.1375 -1.86631,0.875 -3.08674,2.25 l -2.21897,2.5 z m 94.68949,-0.63179 c -0.29411,-0.76645 0.65663,-2.45395 2.11275,-3.75 1.45613,-1.29605 2.03498,-1.55865 1.28633,-0.58356 -1.17019,1.52413 -1.14897,1.69146 0.15121,1.19253 0.85295,-0.3273 1.76448,0.0765 2.09052,0.92618 0.3926,1.02311 0.11583,1.32915 -0.86253,0.95372 -0.79508,-0.3051 -1.71641,0.16582 -2.05606,1.05093 -0.75758,1.97422 -2.00824,2.0708 -2.72222,0.2102 z M 201.5,476 c 2.14824,-2.2 4.1309,-4 4.4059,-4 0.275,0 -1.25766,1.8 -3.4059,4 -2.14824,2.2 -4.1309,4 -4.4059,4 -0.275,0 1.25766,-1.8 3.4059,-4 z m 65.5,-6.37756 c 0,-0.20765 0.7875,-0.99515 1.75,-1.75 1.58606,-1.24387 1.62143,-1.2085 0.37756,0.37756 C 267.82119,469.91575 267,470.44548 267,469.62244 Z m -57,-2.93535 c 0,-0.1721 1.4625,-1.6346 3.25,-3.25 l 3.25,-2.93709 -2.93709,3.25 C 210.82513,466.77946 210,467.45965 210,466.68709 Z m 67,-5.06465 c 0,-0.20765 0.7875,-0.99515 1.75,-1.75 1.58606,-1.24387 1.62143,-1.2085 0.37756,0.37756 C 277.82119,461.91575 277,462.44548 277,461.62244 Z M 215.5,459 c -0.33992,-0.55 -0.042,-1 0.66199,-1 0.70401,0 3.99306,-2.58738 7.30901,-5.74974 l 6.029,-5.74973 -6.47111,6.74973 C 219.46978,456.96262 216.45883,460 216.33791,460 c -0.12093,0 -0.49799,-0.45 -0.83791,-1 z m 112.21397,-2.0142 c 0.66624,-2.54772 2.16575,-3.50608 3.46029,-2.21154 0.66667,0.66667 0.58612,1.2558 -0.24164,1.76738 -0.80038,0.49466 -0.98806,0.35708 -0.52811,-0.38713 C 330.79695,455.51953 330.64148,455 330.05902,455 329.47656,455 329,455.64844 329,456.44098 c 0,0.79254 -0.40803,1.69316 -0.90674,2.00138 -0.49871,0.30822 -0.66939,-0.34723 -0.37929,-1.45656 z M 283.5,456 c 0.99549,-1.1 2.03498,-2 2.30998,-2 0.275,0 -0.31449,0.9 -1.30998,2 -0.99549,1.1 -2.03498,2 -2.30998,2 -0.275,0 0.31449,-0.9 1.30998,-2 z m 266.3125,-6.68311 c 0.72187,-0.28887 1.58438,-0.25335 1.91667,0.0789 0.33229,0.33229 -0.25834,0.56864 -1.3125,0.52522 -1.16495,-0.048 -1.4019,-0.28494 -0.60417,-0.60416 z M 686.75,449.2766 c 1.7875,-0.22182 4.7125,-0.22182 6.5,0 1.7875,0.22183 0.325,0.40333 -3.25,0.40333 -3.575,0 -5.0375,-0.1815 -3.25,-0.40333 z m 119.0625,0.0403 c 0.72187,-0.28887 1.58438,-0.25335 1.91667,0.0789 0.33229,0.33229 -0.25834,0.56864 -1.3125,0.52522 -1.16495,-0.048 -1.4019,-0.28494 -0.60417,-0.60416 z m 210.4565,-0.01 c 0.973,-0.25354 2.323,-0.23687 3,0.0371 0.6771,0.27393 -0.119,0.48137 -1.769,0.46099 -1.65,-0.0204 -2.2039,-0.2445 -1.231,-0.49804 z m 8,0 c 0.973,-0.25354 2.323,-0.23687 3,0.0371 0.6771,0.27393 -0.119,0.48137 -1.769,0.46099 -1.65,-0.0204 -2.2039,-0.2445 -1.231,-0.49804 z m -243.43754,-5.277 c -0.20823,-2.18355 -0.0621,-4.77105 0.32468,-5.75 0.40423,-1.02304 0.73318,0.66516 0.77357,3.9701 0.0808,6.61109 -0.54136,7.61943 -1.09825,1.7799 z m 180.98104,3.28699 c 0.72187,-0.28887 1.58438,-0.25335 1.91667,0.0789 0.33229,0.33229 -0.25834,0.56864 -1.3125,0.52522 -1.16495,-0.048 -1.4019,-0.28494 -0.60417,-0.60416 z M 295,446.62244 c 0,-0.20765 0.7875,-0.99515 1.75,-1.75 1.58606,-1.24387 1.62143,-1.2085 0.37756,0.37756 C 295.82119,446.91575 295,447.44548 295,446.62244 Z M 325.5,446 c 0.33992,-0.55 1.06803,-1 1.61803,-1 0.55,0 0.72189,0.45 0.38197,1 -0.33992,0.55 -1.06803,1 -1.61803,1 -0.55,0 -0.72189,-0.45 -0.38197,-1 z m 726.4898,-6.20477 c -0.2694,-4.23763 -0.1302,-7.34302 0.3093,-6.90087 0.4396,0.44214 0.66,3.90929 0.4899,7.70477 L 1052.4797,447.5 Z M 187,443 c 1.1749,-1.65 2.36119,-3 2.63619,-3 0.275,0 -0.46129,1.35 -1.63619,3 -1.1749,1.65 -2.36119,3 -2.63619,3 -0.275,0 0.46129,-1.35 1.63619,-3 z m 163,0.5 c 1.29175,-1.375 2.57363,-2.5 2.84863,-2.5 0.275,0 -0.55688,1.125 -1.84863,2.5 -1.29175,1.375 -2.57363,2.5 -2.84863,2.5 -0.275,0 0.55688,-1.125 1.84863,-2.5 z m 744,-1.5 c 0,-3.68254 0.1667,-3.97619 1.5,-2.64286 0.825,0.825 1.5,2.01429 1.5,2.64286 0,0.62857 -0.675,1.81786 -1.5,2.64286 -1.3333,1.33333 -1.5,1.03968 -1.5,-2.64286 z m -770.65351,1.75161 c -0.38543,-0.62363 -0.17983,-0.76664 0.499,-0.3471 0.70361,0.43485 1.18534,0.007 1.23346,-1.09549 0.0434,-0.99496 0.29749,-1.2718 0.56461,-0.6152 0.26711,0.65661 1.2054,0.91763 2.08509,0.58006 0.97778,-0.37521 1.3474,-0.20595 0.95098,0.43547 -0.96173,1.55611 -4.5787,2.26297 -5.33314,1.04226 z M 710.95821,440.75 c 2.45201,-2.6125 4.58951,-4.75 4.75,-4.75 0.75088,0 -0.043,0.89783 -4.45821,5.04179 L 706.5,445.5 Z M 870.32007,439 c 0,-3.575 0.1815,-5.0375 0.40333,-3.25 0.22182,1.7875 0.22182,4.7125 0,6.5 -0.22183,1.7875 -0.40333,0.325 -0.40333,-3.25 z m -565.86119,3.93347 c -1.02606,-1.66021 -0.10511,-1.89043 1.33055,-0.33261 0.70918,0.76953 0.84824,1.39914 0.30901,1.39914 -0.53922,0 -1.27702,-0.47994 -1.63956,-1.06653 z M 1041.5,442 c 0.9955,-1.1 2.035,-2 2.31,-2 0.275,0 -0.3145,0.9 -1.31,2 -0.9955,1.1 -2.035,2 -2.31,2 -0.275,0 0.3145,-0.9 1.31,-2 z m 135.9476,-30.5 c -4e-4,-18.15 0.1347,-25.71608 0.3003,-16.81351 0.1656,8.90257 0.1659,23.75257 7e-4,33 -0.1652,9.24743 -0.3007,1.96351 -0.301,-16.18649 z M 232,442.68709 c 0,-0.1721 1.4625,-1.6346 3.25,-3.25 l 3.25,-2.93709 -2.93709,3.25 C 232.82513,442.77946 232,443.45965 232,442.68709 Z m 87,-0.74611 c 0,-0.58246 0.45,-0.7809 1,-0.44098 0.55,0.33992 1,0.81648 1,1.05902 0,0.24254 -0.45,0.44098 -1,0.44098 -0.55,0 -1,-0.47656 -1,-1.05902 z M 762.44614,411.5 c 4e-4,-17.6 0.13647,-24.65916 0.30237,-15.68703 0.1659,8.97214 0.16557,23.37214 -7.3e-4,32 -0.1663,8.62787 -0.30204,1.28703 -0.30164,-16.31297 z m 26.17022,27.49712 c -1.989,-2.20159 -3.61636,-4.31659 -3.61636,-4.7 0,-0.38342 0.33875,-0.26962 0.75277,0.25288 0.41403,0.5225 2.30231,2.6375 4.19617,4.7 1.89387,2.0625 3.18248,3.75 2.86359,3.75 -0.31889,0 -2.20717,-1.8013 -4.19617,-4.00288 z M 1114.4324,419 c 0,-13.475 0.1416,-18.9875 0.3146,-12.25 0.173,6.7375 0.173,17.7625 0,24.5 -0.173,6.7375 -0.3146,1.225 -0.3146,-12.25 z m -607.47962,20.74503 c -1.40097,-1.23477 -2.03457,-1.91143 -1.40799,-1.50371 0.62657,0.40773 1.43532,0.44523 1.79722,0.0833 0.36189,-0.3619 0.65799,-0.10644 0.65799,0.56769 0,0.67413 0.45,0.94757 1,0.60765 0.55,-0.33992 1,0.0835 1,0.94098 0,1.98254 -0.0111,1.98001 -3.04722,-0.69595 z m 159.34456,0.9613 c -0.76344,-1.20118 -0.93455,-1.75075 -1.17234,-3.76535 -0.0688,-0.58246 -0.54391,-0.80012 -1.0559,-0.48369 -0.512,0.31644 -1.18914,0.1575 -1.50476,-0.35319 -1.23829,-2.0036 2.677,-0.32339 4.94431,2.1218 1.8877,2.0358 2.09841,2.71091 0.98005,3.14006 -0.78356,0.30068 -1.76967,0.004 -2.19136,-0.65963 z M 738.4613,396 c 0,-25.575 0.1295,-36.0375 0.28778,-23.25 0.15828,12.7875 0.15828,33.7125 0,46.5 -0.15828,12.7875 -0.28778,2.325 -0.28778,-23.25 z m 258.41114,43.25 c -1.24387,-1.58606 -1.2085,-1.62143 0.37756,-0.37756 1.66575,1.30637 2.19548,2.12756 1.37244,2.12756 -0.20765,0 -0.99515,-0.7875 -1.75,-1.75 z M 576,438.68709 c 0,-0.1721 1.4625,-1.6346 3.25,-3.25 l 3.25,-2.93709 -2.93709,3.25 C 576.82513,438.77946 576,439.45965 576,438.68709 Z M 1071.4593,394.5 c 3e-4,-24.2 0.1307,-33.95691 0.2899,-21.68203 0.1592,12.27489 0.159,32.07489 -4e-4,44 -0.1595,11.92512 -0.2897,1.88203 -0.2895,-22.31797 z M 841.5,435 c 0.99549,-1.1 2.03498,-2 2.30998,-2 0.275,0 -0.31449,0.9 -1.30998,2 -0.99549,1.1 -2.03498,2 -2.30998,2 -0.275,0 0.31449,-0.9 1.30998,-2 z M 193,434 c 0.5887,-1.1 1.29537,-2 1.57037,-2 0.275,0 0.0183,0.9 -0.57037,2 -0.5887,1.1 -1.29537,2 -1.57037,2 -0.275,0 -0.0183,-0.9 0.57037,-2 z m 49.5,-3 c 2.70865,-2.75 5.14982,-5 5.42482,-5 0.275,0 -1.71617,2.25 -4.42482,5 -2.70865,2.75 -5.14982,5 -5.42482,5 -0.275,0 1.71617,-2.25 4.42482,-5 z m 112.57895,3.41667 c 0.048,-1.16495 0.28494,-1.4019 0.60416,-0.60417 0.28887,0.72187 0.25335,1.58438 -0.0789,1.91667 -0.33229,0.33229 -0.56864,-0.25834 -0.52522,-1.3125 z M 499.40499,433.75 497.5,431.5 l 2.25,1.90499 c 1.2375,1.04774 2.25,2.06024 2.25,2.25 0,0.80025 -0.80479,0.20945 -2.59501,-1.90499 z m 135.44482,-4.5 -0.1502,-4.75 L 634,429 c -0.58088,3.73632 -0.69794,3.14235 -0.68977,-3.5 0.005,-4.4 0.24907,-6.425 0.54147,-4.5 l 0.53162,3.5 0.65815,-4.5 c 0.51695,-3.53464 0.69036,-2.51565 0.80834,4.75 0.0826,5.0875 -0.0748,9.25 -0.34981,9.25 -0.275,0 -0.56759,-2.1375 -0.65019,-4.75 z M 783,432 c -0.90129,-0.58246 -1.02463,-0.97549 -0.30902,-0.98469 0.65504,-0.008 1.4691,0.43469 1.80902,0.98469 0.7673,1.24153 0.42112,1.24153 -1.5,0 z m 373.2724,-3 c 0,-2.475 0.195,-3.4875 0.4333,-2.25 0.2384,1.2375 0.2384,3.2625 0,4.5 -0.2383,1.2375 -0.4333,0.225 -0.4333,-2.25 z m -345.4599,2.31689 c 0.72187,-0.28887 1.58438,-0.25335 1.91667,0.0789 0.33229,0.33229 -0.25834,0.56864 -1.3125,0.52522 -1.16495,-0.048 -1.4019,-0.28494 -0.60417,-0.60416 z M 941.63837,430.5 c -0.31658,-0.825 -0.18787,-1.5 0.28603,-1.5 0.47389,0 1.12064,0.675 1.43723,1.5 0.31658,0.825 0.18787,1.5 -0.28603,1.5 -0.47389,0 -1.12064,-0.675 -1.43723,-1.5 z m -246.36934,-0.19299 c 0.97297,-0.25354 2.32297,-0.23687 3,0.0371 0.67703,0.27393 -0.11903,0.48137 -1.76903,0.46099 -1.65,-0.0204 -2.20394,-0.2445 -1.23097,-0.49804 z m 102.23805,-0.29556 c -0.35034,-0.56686 0.0511,-0.7345 0.94098,-0.39301 1.73242,0.66479 2.04939,1.38156 0.61096,1.38156 -0.51754,0 -1.21592,-0.44485 -1.55194,-0.98855 z m 230.24292,0.32627 c 0.6875,-0.27741 1.8125,-0.27741 2.5,0 0.6875,0.27741 0.125,0.50439 -1.25,0.50439 -1.375,0 -1.9375,-0.22698 -1.25,-0.50439 z m -503.67453,-1.29108 c -0.95852,-0.59239 -0.91699,-0.89348 0.18137,-1.31496 0.78349,-0.30065 1.98395,-0.2009 2.66769,0.22168 0.95852,0.59239 0.91699,0.89348 -0.18137,1.31496 -0.78349,0.30065 -1.98395,0.2009 -2.66769,-0.22168 z m 5.73703,0.27025 c 0.72187,-0.28887 1.58438,-0.25335 1.91667,0.0789 0.33229,0.33229 -0.25834,0.56864 -1.3125,0.52522 -1.16495,-0.048 -1.4019,-0.28494 -0.60417,-0.60416 z M 871.89404,427.45 c -0.19677,-5.47812 0.26922,-8.94504 1.33741,-9.95 0.73547,-0.69195 0.87321,-0.46091 0.44711,0.75 -0.33868,0.9625 -0.26336,1.75 0.16738,1.75 1.23036,0 0.66792,7.88614 -0.65693,9.21099 -0.91868,0.91868 -1.2131,0.51831 -1.29497,-1.76099 z m -188.07091,0.86334 c 0.98541,-0.3938 0.73017,-1.20318 -1,-3.17105 L 680.5,422.5 l 2.71918,2.39536 c 2.65132,2.33558 2.86801,4.18453 0.4718,4.02569 -0.78788,-0.0522 -0.74315,-0.25791 0.13215,-0.60771 z M 793.87244,427.25 c -1.24387,-1.58606 -1.2085,-1.62143 0.37756,-0.37756 1.66575,1.30637 2.19548,2.12756 1.37244,2.12756 -0.20765,0 -0.99515,-0.7875 -1.75,-1.75 z m 27.78508,1.07419 c -1.05073,-1.05073 3.38536,-5.24497 4.92323,-4.65483 1.14608,0.43979 1.13751,0.75524 -0.0529,1.94562 -0.7814,0.78141 -1.78233,1.35941 -2.2243,1.28446 -2.0085,-0.34063 -2.66976,0.21766 -1.30357,1.10056 0.825,0.53316 1.0125,0.97627 0.41667,0.98469 -0.59584,0.008 -1.38745,-0.28881 -1.75915,-0.6605 z M 200,424 c 1.1749,-1.65 2.36119,-3 2.63619,-3 0.275,0 -0.46129,1.35 -1.63619,3 -1.1749,1.65 -2.36119,3 -2.63619,3 -0.275,0 0.46129,-1.35 1.63619,-3 z m 508,2.68709 c 0,-0.1721 1.4625,-1.6346 3.25,-3.25 l 3.25,-2.93709 -2.93709,3.25 C 708.82513,426.77946 708,427.45965 708,426.68709 Z m 306.5,-1.47036 c -1.1,-0.9442 -2.1237,-2.61673 -2.2749,-3.71673 l -0.2749,-2 1.1649,2 c 0.6407,1.1 1.8466,2.7875 2.6799,3.75 1.9155,2.21264 1.3032,2.19691 -1.295,-0.0333 z m -659.42105,-0.80006 c 0.048,-1.16495 0.28494,-1.4019 0.60416,-0.60417 0.28887,0.72187 0.25335,1.58438 -0.0789,1.91667 -0.33229,0.33229 -0.56864,-0.25834 -0.52522,-1.3125 z M 1043,423.5 c 1.2917,-1.375 2.5736,-2.5 2.8486,-2.5 0.275,0 -0.5569,1.125 -1.8486,2.5 -1.2917,1.375 -2.5736,2.5 -2.8486,2.5 -0.275,0 0.5569,-1.125 1.8486,-2.5 z m -153,0.44098 c 0,-0.58246 0.45,-0.7809 1,-0.44098 0.55,0.33992 1,0.81648 1,1.05902 0,0.24254 -0.45,0.44098 -1,0.44098 -0.55,0 -1,-0.47656 -1,-1.05902 z M 1156.4248,403 c 0,-11.825 0.1446,-16.6625 0.3214,-10.75 0.1768,5.9125 0.1768,15.5875 0,21.5 -0.1768,5.9125 -0.3214,1.075 -0.3214,-10.75 z M 251.5,421 c 0.99549,-1.1 2.03498,-2 2.30998,-2 0.275,0 -0.31449,0.9 -1.30998,2 -0.99549,1.1 -2.03498,2 -2.30998,2 -0.275,0 0.31449,-0.9 1.30998,-2 z m 405.87467,-4.49101 c 0.0927,-3.69258 0.53711,-5.06908 1.70817,-5.29113 1.27012,-0.24083 1.47242,0.35011 1.02392,2.99101 l -0.55892,3.29113 -0.47694,-3 c -0.40843,-2.56905 -0.57352,-2.28175 -1.14925,2 l -0.6723,5 z m 301.07148,3.40388 c -0.36954,-0.59793 -0.14443,-1.61043 0.50023,-2.25 0.89419,-0.88714 0.99922,-0.70903 0.44293,0.75117 -0.54818,1.43893 -0.40042,1.71086 0.59526,1.0955 0.88124,-0.54464 1.08567,-0.43221 0.61092,0.33595 -0.88694,1.4351 -1.29611,1.44793 -2.14934,0.0674 z m 89.17225,-0.46481 c -0.389,-1.01395 -0.1939,-1.30374 0.563,-0.83595 0.7807,0.4825 0.9438,0.15641 0.5,-1 -0.3622,-0.94379 -0.2521,-1.46481 0.2446,-1.15782 0.4968,0.307 1.1058,-0.007 1.3535,-0.69806 0.2477,-0.69093 0.4034,0.20627 0.346,1.99377 -0.1081,3.36773 -1.9642,4.41583 -3.0071,1.69806 z m -333.00531,-0.63104 c 0.28881,-0.4673 0.94401,-0.59075 1.45601,-0.27431 1.30838,0.80862 1.16106,1.12396 -0.52511,1.12396 -0.80081,0 -1.21971,-0.38234 -0.9309,-0.84965 z M 989.29966,415 c 0,-3.025 0.18747,-4.2625 0.41659,-2.75 0.22913,1.5125 0.22913,3.9875 0,5.5 -0.22912,1.5125 -0.41659,0.275 -0.41659,-2.75 z m -638.42722,1.25 c -1.24387,-1.58606 -1.2085,-1.62143 0.37756,-0.37756 1.66575,1.30637 2.19548,2.12756 1.37244,2.12756 -0.20765,0 -0.99515,-0.7875 -1.75,-1.75 z m 137.60276,-1.17187 c 0.55325,-1.74312 0.42186,-2.13254 -0.52257,-1.54885 -0.85967,0.5313 -1.01229,0.37627 -0.47902,-0.48657 0.43841,-0.70937 0.26564,-1.58583 -0.39283,-1.99278 -0.86845,-0.53674 -0.79979,-1.03824 0.26291,-1.9202 1.17998,-0.9793 1.63394,-0.63266 2.52722,1.92981 0.88964,2.55201 0.79395,3.41846 -0.52295,4.73536 -1.48243,1.48243 -1.55249,1.42489 -0.87276,-0.71677 z M 616.15789,415 c 0,-1.375 0.22698,-1.9375 0.50439,-1.25 0.27741,0.6875 0.27741,1.8125 0,2.5 -0.27741,0.6875 -0.50439,0.125 -0.50439,-1.25 z M 249,414 c -0.825,-0.53316 -1.05,-0.96937 -0.5,-0.96937 0.55,0 1.675,0.43621 2.5,0.96937 0.825,0.53316 1.05,0.96937 0.5,0.96937 -0.55,0 -1.675,-0.43621 -2.5,-0.96937 z m 602.15789,-1 c 0,-1.375 0.22698,-1.9375 0.50439,-1.25 0.27741,0.6875 0.27741,1.8125 0,2.5 -0.27741,0.6875 -0.50439,0.125 -0.50439,-1.25 z m 19.20734,-7.5 c 0.003,-5.5 0.17053,-7.62242 0.37317,-4.71648 0.20265,2.90594 0.20052,7.40594 -0.005,10 -0.20525,2.59406 -0.37104,0.21648 -0.36844,-5.28352 z m -627.9241,4.94483 c -1.86402,-1.49339 -1.85176,-1.51185 0.30887,-0.46481 1.2375,0.59969 2.25,1.29951 2.25,1.55516 0,0.76522 -0.51861,0.54424 -2.55887,-1.09035 z m 350.63782,-0.0282 c 0.048,-1.16495 0.28494,-1.4019 0.60416,-0.60417 0.28887,0.72187 0.25335,1.58438 -0.0789,1.91667 -0.33229,0.33229 -0.56864,-0.25834 -0.52522,-1.3125 z M 616,410.55902 C 616,409.70156 616.45,409 617,409 c 0.55,0 1,0.42344 1,0.94098 0,0.51754 -0.45,1.2191 -1,1.55902 -0.55,0.33992 -1,-0.0835 -1,-0.94098 z M 677.44541,381 c 0,-17.325 0.13621,-24.4125 0.30269,-15.75 0.16648,8.6625 0.16648,22.8375 0,31.5 -0.16648,8.6625 -0.30269,1.575 -0.30269,-15.75 z m 105.63354,28.41667 c 0.048,-1.16495 0.28494,-1.4019 0.60416,-0.60417 0.28887,0.72187 0.25335,1.58438 -0.0789,1.91667 -0.33229,0.33229 -0.56864,-0.25834 -0.52522,-1.3125 z m -516.63782,-0.97184 c -1.86402,-1.49339 -1.85176,-1.51185 0.30887,-0.46481 1.2375,0.59969 2.25,1.29951 2.25,1.55516 0,0.76522 -0.51861,0.54424 -2.55887,-1.09035 z M 137.25,408.27153 c 2.0625,-0.21574 5.4375,-0.21574 7.5,0 2.0625,0.21575 0.375,0.39226 -3.75,0.39226 -4.125,0 -5.8125,-0.17651 -3.75,-0.39226 z M 718.25218,405.5 c 0.0111,-2.2 0.21589,-2.98225 0.45508,-1.73834 0.23919,1.24391 0.23011,3.04391 -0.0202,4 -0.25029,0.95609 -0.446,-0.0617 -0.4349,-2.26166 z M 235.43709,404.75 232.5,401.5 l 3.25,2.93709 c 3.02946,2.73778 3.70965,3.56291 2.93709,3.56291 -0.1721,0 -1.6346,-1.4625 -3.25,-3.25 z m 358.64186,1.66667 c 0.048,-1.16495 0.28494,-1.4019 0.60416,-0.60417 0.28887,0.72187 0.25335,1.58438 -0.0789,1.91667 -0.33229,0.33229 -0.56864,-0.25834 -0.52522,-1.3125 z M 635.38176,395.5 c 0.002,-6.6 0.16382,-9.16987 0.35965,-5.71081 0.19583,3.45905 0.19422,8.85905 -0.004,12 -0.19781,3.14094 -0.35803,0.31081 -0.35606,-6.28919 z M 852.3605,398 c 0,-5.225 0.16854,-7.3625 0.37454,-4.75 0.206,2.6125 0.206,6.8875 0,9.5 -0.206,2.6125 -0.37454,0.475 -0.37454,-4.75 z m -21.28155,6.41667 c 0.048,-1.16495 0.28494,-1.4019 0.60416,-0.60417 0.28887,0.72187 0.25335,1.58438 -0.0789,1.91667 -0.33229,0.33229 -0.56864,-0.25834 -0.52522,-1.3125 z M 1050.4405,378 c 0,-15.675 0.1383,-22.0875 0.3072,-14.25 0.169,7.8375 0.169,20.6625 0,28.5 -0.1689,7.8375 -0.3072,1.425 -0.3072,-14.25 z m -268.11236,20.5 c 0.004,-3.85 0.18518,-5.30246 0.40166,-3.2277 0.21647,2.07477 0.21284,5.22477 -0.008,7 -0.22091,1.77524 -0.39803,0.0777 -0.39359,-3.7723 z m 138.18314,0.87688 c -0.9453,-1.44272 -1.22448,-2.31766 -0.62038,-1.94431 1.15439,0.71346 3.48267,4.56743 2.75929,4.56743 -0.23109,0 -1.1936,-1.18041 -2.13891,-2.62312 z M 219.08558,396.75 c 1.7894,-2.6125 3.42873,-4.75 3.64296,-4.75 0.21422,0 0.11138,0.45 -0.22854,1 -0.58891,0.95287 0.67351,1.39596 3.13622,1.10078 0.62492,-0.0749 1.40087,0.55348 1.72433,1.39642 0.46146,1.20255 0.0151,1.42869 -2.07278,1.05009 -1.46349,-0.26538 -3.25195,0.008 -3.97433,0.60754 -0.72239,0.59953 -1.31344,0.76011 -1.31344,0.35683 0,-0.40328 -0.93777,0.32912 -2.08394,1.62756 -1.14617,1.29843 -0.61989,0.22328 1.16952,-2.38922 z M 893.15789,399 c 0,-1.375 0.22698,-1.9375 0.50439,-1.25 0.27741,0.6875 0.27741,1.8125 0,2.5 -0.27741,0.6875 -0.50439,0.125 -0.50439,-1.25 z m -260.07894,-1.58333 c 0.048,-1.16495 0.28494,-1.4019 0.60416,-0.60417 0.28887,0.72187 0.25335,1.58438 -0.0789,1.91667 -0.33229,0.33229 -0.56864,-0.25834 -0.52522,-1.3125 z M 1009.4301,373 c 0,-12.925 0.1425,-18.2125 0.3167,-11.75 0.1742,6.4625 0.1742,17.0375 0,23.5 -0.1742,6.4625 -0.3167,1.175 -0.3167,-11.75 z m -178.27221,20 c 0,-1.375 0.22698,-1.9375 0.50439,-1.25 0.27741,0.6875 0.27741,1.8125 0,2.5 -0.27741,0.6875 -0.50439,0.125 -0.50439,-1.25 z m -349,-1 c 0,-1.375 0.22698,-1.9375 0.50439,-1.25 0.27741,0.6875 0.27741,1.8125 0,2.5 -0.27741,0.6875 -0.50439,0.125 -0.50439,-1.25 z M 224,392.5603 c 0,-0.17348 0.62245,-0.832 1.38322,-1.46338 1.05457,-0.87522 1.50365,-0.83411 1.89013,0.17303 0.30143,0.78551 -0.25928,1.37871 -1.38322,1.46337 C 224.85056,392.81163 224,392.73377 224,392.5603 Z M 504.232,390 c 0,-1.925 0.2058,-2.7125 0.45733,-1.75 0.25152,0.9625 0.25152,2.5375 0,3.5 -0.25153,0.9625 -0.45733,0.175 -0.45733,-1.75 z m 367.89109,-2.87479 c -0.0986,-3.28487 0.28341,-6.25841 0.84885,-6.60787 1.0708,-0.66179 1.56286,2.67474 1.17517,7.96844 -0.40979,5.5953 -1.84424,4.63105 -2.02402,-1.36057 z M 206,390 c 0.5887,-1.1 1.29537,-2 1.57037,-2 0.275,0 0.0183,0.9 -0.57037,2 -0.5887,1.1 -1.29537,2 -1.57037,2 -0.275,0 -0.0183,-0.9 0.57037,-2 z m 739,1 c 0.825,-0.53316 1.95,-0.96937 2.5,-0.96937 0.55,0 0.325,0.43621 -0.5,0.96937 -0.825,0.53316 -1.95,0.96937 -2.5,0.96937 -0.55,0 -0.325,-0.43621 0.5,-0.96937 z m -722,-0.37756 c 0,-0.20765 0.7875,-0.99515 1.75,-1.75 1.58606,-1.24387 1.62143,-1.2085 0.37756,0.37756 C 223.82119,390.91575 223,391.44548 223,390.62244 Z m 560.07895,-3.20577 c 0.048,-1.16495 0.28494,-1.4019 0.60416,-0.60417 0.28887,0.72187 0.25335,1.58438 -0.0789,1.91667 -0.33229,0.33229 -0.56864,-0.25834 -0.52522,-1.3125 z m 168.57145,0.052 c 0.32817,-0.8552 0.82525,-1.32634 1.10462,-1.04697 0.27937,0.27937 1.34878,0.0579 2.37646,-0.49206 1.02769,-0.55 1.86852,-0.77072 1.86852,-0.49049 0,0.28022 -1.33791,1.20136 -2.97314,2.04697 -2.68371,1.3878 -2.91505,1.3861 -2.37646,-0.0174 z m 163.4285,-0.052 c 0.048,-1.16495 0.285,-1.4019 0.6042,-0.60417 0.2889,0.72187 0.2534,1.58438 -0.079,1.91667 -0.3323,0.33229 -0.5687,-0.25834 -0.5253,-1.3125 z M 208,386.62244 c 0,-0.20765 0.7875,-0.99515 1.75,-1.75 1.58606,-1.24387 1.62143,-1.2085 0.37756,0.37756 C 208.82119,386.91575 208,387.44548 208,386.62244 Z M 238.34108,378.5 c -0.009,-4.3246 0.22233,-5.8534 0.60476,-4 0.45167,2.18902 1.11097,2.91422 2.43891,2.68266 1.55005,-0.27028 1.61938,-0.10049 0.46758,1.14504 -0.74378,0.80431 -1.66068,1.27607 -2.03756,1.04836 -0.37687,-0.22772 -0.85942,1.05701 -1.07233,2.85496 -0.2129,1.79794 -0.39352,0.11898 -0.40136,-3.73102 z M 960.5,382 c 0.99549,-1.1 2.03498,-2 2.30998,-2 0.275,0 -0.31449,0.9 -1.30998,2 -0.99549,1.1 -2.03498,2 -2.30998,2 -0.275,0 0.31449,-0.9 1.30998,-2 z M 718.46064,365.25107 718.5,349.5 722,349.36948 c 3.45128,-0.1287 3.45511,-0.12437 0.27508,0.31149 l -3.22492,0.44201 -0.31444,15.43958 -0.31443,15.43958 z M 382.46241,373.75 377.5,368.5 l 5.25,4.96241 c 4.87839,4.61116 5.7086,5.53759 4.96241,5.53759 -0.15818,0 -2.52068,-2.3625 -5.25,-5.25 z M 389,378.68709 c 0,-0.1721 1.4625,-1.6346 3.25,-3.25 l 3.25,-2.93709 -2.93709,3.25 C 389.82513,378.77946 389,379.45965 389,378.68709 Z M 635.15789,376 c 0,-1.375 0.22698,-1.9375 0.50439,-1.25 0.27741,0.6875 0.27741,1.8125 0,2.5 -0.27741,0.6875 -0.50439,0.125 -0.50439,-1.25 z m 152.4064,-0.29313 c 0.37553,-0.98622 0.93469,-1.54122 1.24258,-1.23333 0.30789,0.30789 6.4e-4,1.11479 -0.68278,1.79313 -0.98762,0.98026 -1.10248,0.8654 -0.5598,-0.5598 z M 908.25,376.25845 c 3.7125,-0.19241 9.7875,-0.19241 13.5,0 3.7125,0.19241 0.675,0.34983 -6.75,0.34983 -7.425,0 -10.4625,-0.15742 -6.75,-0.34983 z m -426.17105,-3.84178 c 0.048,-1.16495 0.28494,-1.4019 0.60416,-0.60417 0.28887,0.72187 0.25335,1.58438 -0.0789,1.91667 -0.33229,0.33229 -0.56864,-0.25834 -0.52522,-1.3125 z M 504.15789,372 c 0,-1.375 0.22698,-1.9375 0.50439,-1.25 0.27741,0.6875 0.27741,1.8125 0,2.5 -0.27741,0.6875 -0.50439,0.125 -0.50439,-1.25 z m -263.1109,0.5 c 0.10442,-0.55 0.12967,-1.675 0.0561,-2.5 -0.11888,-1.33333 -0.24144,-1.33333 -1.10311,0 -1.74117,2.69426 -0.96481,-0.41115 1,-4 l 1.91617,-3.5 0.1604,3 c 0.22117,4.13669 -0.077,5.83119 -1.23157,7 -0.65857,0.66667 -0.92457,0.66667 -0.79801,0 z M 1122,372.62244 c 0,-0.20765 0.7875,-0.99515 1.75,-1.75 1.5861,-1.24387 1.6214,-1.2085 0.3776,0.37756 -1.3064,1.66575 -2.1276,2.19548 -2.1276,1.37244 z M 762.34281,362.5 c 0.004,-4.4 0.17944,-6.07561 0.39069,-3.72357 0.21124,2.35204 0.20827,5.95204 -0.007,8 -0.21487,2.04796 -0.38771,0.12357 -0.38408,-4.27643 z m 107.9432,3 c 0.008,-2.75 0.20172,-3.75631 0.43157,-2.23625 0.22986,1.52006 0.22371,3.77006 -0.0136,5 -0.23736,1.22994 -0.42542,-0.0138 -0.41792,-2.76375 z M 399,368.68709 c 0,-0.1721 1.4625,-1.6346 3.25,-3.25 l 3.25,-2.93709 -2.93709,3.25 C 399.82513,368.77946 399,369.45965 399,368.68709 Z m 568.60699,-1.26888 C 966.64148,364.90213 966.90367,359 967.98095,359 c 1.4551,0 2.43902,4.98003 1.22398,6.19507 -0.57675,0.57675 -0.81066,1.66881 -0.5198,2.42679 0.29087,0.75797 0.30385,1.37814 0.0289,1.37814 -0.275,0 -0.77315,-0.7118 -1.10699,-1.58179 z m 162.05061,-0.96825 c 0.2793,-0.72802 1.1457,-1.07894 1.9252,-0.77983 1.8781,0.72072 1.7897,0.99919 -0.508,1.60005 -1.3143,0.3437 -1.764,0.0834 -1.4172,-0.82022 z m -624.57865,-1.03329 c 0.048,-1.16495 0.28494,-1.4019 0.60416,-0.60417 0.28887,0.72187 0.25335,1.58438 -0.0789,1.91667 -0.33229,0.33229 -0.56864,-0.25834 -0.52522,-1.3125 z M 369.45295,361.75 365.5,357.5 l 4.25,3.95295 c 3.95246,3.6762 4.70953,4.54705 3.95295,4.54705 -0.16338,0 -2.07588,-1.9125 -4.25,-4.25 z M 635.15789,364 c 0,-1.375 0.22698,-1.9375 0.50439,-1.25 0.27741,0.6875 0.27741,1.8125 0,2.5 -0.27741,0.6875 -0.50439,0.125 -0.50439,-1.25 z m 170.10586,1.28242 c 1.52006,-0.22986 3.77006,-0.22371 5,0.0136 1.22994,0.23736 -0.0137,0.42542 -2.76375,0.41792 -2.75,-0.008 -3.75631,-0.20172 -2.23625,-0.43157 z M 311.5,357 c 4.37419,-4.4 8.17808,-8 8.45308,-8 0.275,0 -3.07889,3.6 -7.45308,8 -4.37419,4.4 -8.17808,8 -8.45308,8 -0.275,0 3.07889,-3.6 7.45308,-8 z m -46.12429,5.60856 c 0.54595,-1.54109 0.40961,-1.67528 -0.73603,-0.72448 -1.08361,0.89932 -1.52238,0.86399 -1.91303,-0.15403 -0.3003,-0.78258 0.25545,-1.37842 1.36353,-1.46189 2.4177,-0.18212 3.49253,1.57666 1.87551,3.06897 -0.98957,0.91325 -1.11621,0.75686 -0.58998,-0.72857 z M 782.43125,340.5 c 6.6e-4,-13.2 0.14295,-18.46169 0.31621,-11.69265 0.17326,6.76904 0.17273,17.56904 -0.001,24 -0.17391,6.43096 -0.31567,0.89265 -0.31502,-12.30735 z m 331.01025,22.20821 c -0.3358,-0.87526 -0.3998,-2.40517 -0.1421,-3.3998 0.2849,-1.09946 0.5141,-0.64705 0.5846,1.154 l 0.116,2.96241 4.75,-4.51915 c 7.1156,-6.7698 7.8035,-7.18256 7.9837,-4.79046 0.089,1.17608 -0.3443,1.83482 -1.041,1.58415 -2.2781,-0.81961 -4.541,1.16458 -3.9418,3.45622 0.4694,1.79495 0.2486,2.0582 -1.2456,1.48482 -1.2012,-0.46094 -2.6013,0.0406 -4.1347,1.48113 -2.0086,1.88706 -2.4,1.96544 -2.9291,0.58668 z m -997.02436,-1.06354 c -0.28605,-0.74543 -0.35863,-4.23293 -0.16129,-7.75 l 0.35879,-6.39467 0.19268,7.2001 0.19268,7.20009 5.75,0.36082 5.75,0.36082 -5.78138,0.18909 c -4.08078,0.13346 -5.93437,-0.20959 -6.30148,-1.16625 z m 456.24953,-0.31134 c -0.36667,-0.36666 -0.65978,-1.15416 -0.65136,-1.75 0.01,-0.67216 0.30709,-0.62423 0.78406,0.12629 0.48581,0.76442 4.25264,1.33211 10.23469,1.54245 l 9.46594,0.33285 -9.58333,0.20754 c -5.27084,0.11415 -9.88334,-0.0925 -10.25,-0.45913 z M 892.15789,360 c 0,-1.375 0.22698,-1.9375 0.50439,-1.25 0.27741,0.6875 0.27741,1.8125 0,2.5 -0.27741,0.6875 -0.50439,0.125 -0.50439,-1.25 z m 53.92106,0.41667 c 0.048,-1.16495 0.28494,-1.4019 0.60416,-0.60417 0.28887,0.72187 0.25335,1.58438 -0.0789,1.91667 -0.33229,0.33229 -0.56864,-0.25834 -0.52522,-1.3125 z M 786,360.68709 c 0,-0.1721 1.4625,-1.6346 3.25,-3.25 l 3.25,-2.93709 -2.93709,3.25 C 786.82513,360.77946 786,361.45965 786,360.68709 Z M 837.92431,358.25 835.5,355.5 l 2.75,2.42431 c 1.5125,1.33338 2.75,2.57088 2.75,2.75 0,0.78428 -0.8098,0.14598 -3.07569,-2.42431 z M 870.32007,354 c 0,-3.575 0.1815,-5.0375 0.40333,-3.25 0.22182,1.7875 0.22182,4.7125 0,6.5 -0.22183,1.7875 -0.40333,0.325 -0.40333,-3.25 z m -458.36186,0.75 C 416.10217,350.33481 417,349.54091 417,350.29179 c 0,0.16049 -2.1375,2.29799 -4.75,4.75 L 407.5,359.5 Z m 558.3278,-0.25 c 0.008,-2.75 0.20172,-3.75631 0.43157,-2.23625 0.22986,1.52006 0.22371,3.77006 -0.0136,5 -0.23736,1.22994 -0.42542,-0.0138 -0.41792,-2.76375 z m 196.58639,0.75 c -1.2438,-1.58606 -1.2085,-1.62143 0.3776,-0.37756 0.9625,0.75485 1.75,1.54235 1.75,1.75 0,0.82304 -0.8212,0.29331 -2.1276,-1.37244 z m -886.15179,-0.66354 c -1.45586,-1.10448 -1.51923,-1.44976 -0.34854,-1.899 0.86681,-0.33262 1.6299,0.21207 1.93577,1.38174 0.27771,1.06194 0.43455,1.91649 0.34854,1.899 -0.086,-0.0175 -0.95711,-0.63928 -1.93577,-1.38174 z m 312.35834,-0.16979 c 0.048,-1.16495 0.28494,-1.4019 0.60416,-0.60417 0.28887,0.72187 0.25335,1.58438 -0.0789,1.91667 -0.33229,0.33229 -0.56864,-0.25834 -0.52522,-1.3125 z M 357.45295,350.75 353.5,346.5 l 4.25,3.95295 c 3.95246,3.6762 4.70953,4.54705 3.95295,4.54705 -0.16338,0 -2.07588,-1.9125 -4.25,-4.25 z M 793,354.62244 c 0,-0.20765 0.7875,-0.99515 1.75,-1.75 1.58606,-1.24387 1.62143,-1.2085 0.37756,0.37756 C 793.82119,354.91575 793,355.44548 793,354.62244 Z M 616.17839,348.5 c -0.0348,-4.0413 0.21523,-5.34224 0.7658,-3.98512 0.44957,1.10818 0.4728,3.80818 0.0516,6 -0.71985,3.74601 -0.7689,3.62511 -0.81741,-2.01488 z m 256.02058,-9.43689 c 0.0217,-7.2603 0.38347,-10.07263 1.34298,-10.44083 0.9992,-0.38343 1.2246,0.61782 0.94254,4.18689 -0.20389,2.57996 -0.4339,4.91583 -0.51114,5.19083 -0.0772,0.275 -0.1671,2.8625 -0.19971,5.75 -0.0326,2.8875 -0.40694,5.25 -0.83185,5.25 -0.4249,0 -0.75917,-4.4716 -0.74282,-9.93689 z M 811.75,347.33772 c 0.6875,-0.27741 1.8125,-0.27741 2.5,0 0.6875,0.27741 0.125,0.50439 -1.25,0.50439 -1.375,0 -1.9375,-0.22698 -1.25,-0.50439 z m 331.5,-0.054 c 1.5125,-0.22913 3.9875,-0.22913 5.5,0 1.5125,0.22912 0.275,0.41659 -2.75,0.41659 -3.025,0 -4.2625,-0.18747 -2.75,-0.41659 z M 564.40499,344.75 562.5,342.5 l 2.25,1.90499 c 2.11444,1.79022 2.70524,2.59501 1.90499,2.59501 -0.18976,0 -1.20226,-1.0125 -2.25,-2.25 z m -214.53255,-0.5 c -1.24387,-1.58606 -1.2085,-1.62143 0.37756,-0.37756 1.66575,1.30637 2.19548,2.12756 1.37244,2.12756 -0.20765,0 -0.99515,-0.7875 -1.75,-1.75 z m 40.79083,1.01417 c -0.29441,-0.47636 0.89841,-2.0101 2.65072,-3.4083 L 396.5,339.3137 v 2.34315 c 0,1.28873 -0.45,2.17687 -1,1.97364 -0.55,-0.20323 -1.74283,0.27608 -2.65072,1.06514 -0.9079,0.78906 -1.89161,1.0449 -2.18601,0.56854 z M 941.40499,343.75 939.5,341.5 l 2.25,1.90499 c 1.2375,1.04774 2.25,2.06024 2.25,2.25 0,0.80025 -0.80479,0.20945 -2.59501,-1.90499 z M 385.25,343.64009 C 384.0125,343.0272 383,342.18245 383,341.76287 383,341.34329 382.39723,341 381.66052,341 c -1.58007,0 -3.96146,-4.69598 -2.75843,-5.43949 0.45466,-0.281 2.71448,1.72793 5.02181,4.46429 2.30733,2.73636 4.05586,4.91995 3.88563,4.85242 -0.17024,-0.0675 -1.32203,-0.62424 -2.55953,-1.23713 z M 325,343.62244 c 0,-0.20765 0.7875,-0.99515 1.75,-1.75 1.58606,-1.24387 1.62143,-1.2085 0.37756,0.37756 C 325.82119,343.91575 325,344.44548 325,343.62244 Z M 937,341 c -0.90129,-0.58246 -1.02463,-0.97549 -0.30902,-0.98469 0.65504,-0.008 1.4691,0.43469 1.80902,0.98469 0.7673,1.24153 0.42112,1.24153 -1.5,0 z m -585,-6.5 c 2.98742,-3.025 5.65668,-5.5 5.93168,-5.5 0.275,0 -1.94426,2.475 -4.93168,5.5 -2.98742,3.025 -5.65668,5.5 -5.93168,5.5 -0.275,0 1.94426,-2.475 4.93168,-5.5 z m 170,4 c -0.71755,-0.86459 -0.81474,-1.5 -0.22943,-1.5 0.5585,0 1.27447,0.675 1.59106,1.5 0.31658,0.825 0.41982,1.5 0.22943,1.5 -0.19039,0 -0.90637,-0.675 -1.59106,-1.5 z M 870.37817,329 c 0,-6.325 0.16237,-8.9125 0.36082,-5.75 0.19845,3.1625 0.19845,8.3375 0,11.5 -0.19845,3.1625 -0.36082,0.575 -0.36082,-5.75 z m -345.7115,9.33333 C 523.53204,337.19871 523.92983,336 525.44098,336 c 0.79254,0 1.71592,0.44485 2.05194,0.98855 0.3629,0.58718 -0.0858,0.72119 -1.10503,0.33006 -1.16422,-0.44676 -1.48349,-0.28231 -0.99292,0.51145 0.78535,1.27072 0.34407,1.57565 -0.7283,0.50327 z m 392.6135,-0.0696 c 2.6291,-0.20668 6.6791,-0.20418 9,0.006 2.32091,0.20972 0.16983,0.37882 -4.78017,0.37577 -4.95,-0.003 -6.84892,-0.17464 -4.21983,-0.38131 z M 401.5,335 c 0.99549,-1.1 2.03498,-2 2.30998,-2 0.275,0 -0.31449,0.9 -1.30998,2 -0.99549,1.1 -2.03498,2 -2.30998,2 -0.275,0 0.31449,-0.9 1.30998,-2 z m 134.3125,0.31689 c 0.72187,-0.28887 1.58438,-0.25335 1.91667,0.0789 0.33229,0.33229 -0.25834,0.56864 -1.3125,0.52522 -1.16495,-0.048 -1.4019,-0.28494 -0.60417,-0.60416 z m 9,0 c 0.72187,-0.28887 1.58438,-0.25335 1.91667,0.0789 0.33229,0.33229 -0.25834,0.56864 -1.3125,0.52522 -1.16495,-0.048 -1.4019,-0.28494 -0.60417,-0.60416 z m -170.25971,-3.23148 c -0.32198,-0.52097 -0.15917,-1.21065 0.3618,-1.53262 0.52097,-0.32198 1.21065,-0.15917 1.53262,0.3618 0.32198,0.52097 0.15917,1.21065 -0.3618,1.53262 -0.52097,0.32198 -1.21065,0.15917 -1.53262,-0.3618 z M 437,329.5 c 1.86578,-1.925 3.61733,-3.5 3.89233,-3.5 0.275,0 -1.02655,1.575 -2.89233,3.5 -1.86578,1.925 -3.61733,3.5 -3.89233,3.5 -0.275,0 1.02655,-1.575 2.89233,-3.5 z m 523.40499,0.25 -1.90499,-2.25 2.25,1.90499 c 1.2375,1.04774 2.25,2.06024 2.25,2.25 0,0.80025 -0.80479,0.20945 -2.59501,-1.90499 z m -456.37113,-1.2908 c 0.65602,-0.79045 1.54461,-1.21972 1.97466,-0.95393 0.43005,0.26578 1.06466,-0.25358 1.41023,-1.15414 0.34558,-0.90056 0.91074,-1.35497 1.25591,-1.0098 0.34517,0.34517 1.2411,-0.15292 1.99095,-1.10687 1.00417,-1.27751 1.29368,-1.34956 1.09887,-0.27351 -0.44904,2.48045 -3.16414,4.89107 -6.11062,5.42537 -2.35947,0.42785 -2.62053,0.27845 -1.62,-0.92712 z m -159.84622,-6.61144 c 1.51347,-3.13252 2.22417,-3.80787 2.89394,-2.75 0.48829,0.77123 0.90883,0.95224 0.93453,0.40224 0.0257,-0.55 1.2701,-1.85395 2.76531,-2.89766 1.49522,-1.04372 0.25895,0.64378 -2.74726,3.75 -3.00621,3.10621 -5.55287,5.64766 -5.65925,5.64766 -0.10638,0 0.70935,-1.86851 1.81273,-4.15224 z m 100.0936,0.90224 c 8.21573,-7.79269 10.66109,-9.65249 5.25006,-3.99289 -3.28278,3.43359 -6.34073,6.24289 -6.79545,6.24289 -0.45472,0 0.24071,-1.0125 1.54539,-2.25 z M 416,323.62244 c 0,-0.20765 0.7875,-0.99515 1.75,-1.75 1.58606,-1.24387 1.62143,-1.2085 0.37756,0.37756 C 416.82119,323.91575 416,324.44548 416,323.62244 Z m -236,-2.01545 c 0,-0.21616 0.69837,-0.661 1.55194,-0.98855 0.88992,-0.34149 1.29132,-0.17385 0.94098,0.39301 C 181.90566,321.96166 180,322.4169 180,321.60699 Z m 436,-1.04797 c 0,-1.61407 1.4163,-2.80939 2.29162,-1.93407 C 619.072,319.40533 617.99677,322 616.89301,322 616.40186,322 616,321.35156 616,320.55902 Z M 421.5,319 c 0.99549,-1.1 2.03498,-2 2.30998,-2 0.275,0 -0.31449,0.9 -1.30998,2 -0.99549,1.1 -2.03498,2 -2.30998,2 -0.275,0 0.31449,-0.9 1.30998,-2 z m 474.25,-0.7474 c 7.2875,-0.17086 19.2125,-0.17086 26.5,0 7.2875,0.17086 1.325,0.31066 -13.25,0.31066 -14.575,0 -20.5375,-0.1398 -13.25,-0.31066 z m -365.9375,-1.93571 c 0.72187,-0.28887 1.58438,-0.25335 1.91667,0.0789 0.33229,0.33229 -0.25834,0.56864 -1.3125,0.52522 -1.16495,-0.048 -1.4019,-0.28494 -0.60417,-0.60416 z m 21,0 c 0.72187,-0.28887 1.58438,-0.25335 1.91667,0.0789 0.33229,0.33229 -0.25834,0.56864 -1.3125,0.52522 -1.16495,-0.048 -1.4019,-0.28494 -0.60417,-0.60416 z M 195,312.57037 c 0,-0.275 0.9,-0.98167 2,-1.57037 1.1,-0.5887 2,-0.84537 2,-0.57037 0,0.275 -0.9,0.98167 -2,1.57037 -1.1,0.5887 -2,0.84537 -2,0.57037 z M 452.87244,310.25 c -1.24387,-1.58606 -1.2085,-1.62143 0.37756,-0.37756 1.66575,1.30637 2.19548,2.12756 1.37244,2.12756 -0.20765,0 -0.99515,-0.7875 -1.75,-1.75 z m -98,-2 c -1.24387,-1.58606 -1.2085,-1.62143 0.37756,-0.37756 1.66575,1.30637 2.19548,2.12756 1.37244,2.12756 -0.20765,0 -0.99515,-0.7875 -1.75,-1.75 z M 172,307.62244 c 0,-0.20765 0.7875,-0.99515 1.75,-1.75 1.58606,-1.24387 1.62143,-1.2085 0.37756,0.37756 C 172.82119,307.91575 172,308.44548 172,307.62244 Z M 282,304 c 0.5887,-1.1 1.29537,-2 1.57037,-2 0.275,0 0.0183,0.9 -0.57037,2 -0.5887,1.1 -1.29537,2 -1.57037,2 -0.275,0 -0.0183,-0.9 0.57037,-2 z m 164.92431,-0.75 -2.42431,-2.75 2.75,2.42431 c 2.57029,2.26589 3.20859,3.07569 2.42431,3.07569 -0.17912,0 -1.41662,-1.2375 -2.75,-2.75 z m -104.51932,-4.5 -1.90499,-2.25 2.25,1.90499 c 2.11444,1.79022 2.70524,2.59501 1.90499,2.59501 -0.18976,0 -1.20226,-1.0125 -2.25,-2.25 z M 191,293.62244 c 0,-0.20765 0.7875,-0.99515 1.75,-1.75 1.58606,-1.24387 1.62143,-1.2085 0.37756,0.37756 C 191.82119,293.91575 191,294.44548 191,293.62244 Z m 179.8125,-4.30555 c 0.72187,-0.28887 1.58438,-0.25335 1.91667,0.0789 0.33229,0.33229 -0.25834,0.56864 -1.3125,0.52522 -1.16495,-0.048 -1.4019,-0.28494 -0.60417,-0.60416 z m -51.35463,-7.38506 c -0.3631,-0.5875 -1.19094,-0.8645 -1.83966,-0.61556 -0.64872,0.24893 -1.67894,-0.60572 -2.28938,-1.89922 l -1.10988,-2.35183 3.39052,2.58608 c 3.17855,2.42439 3.99268,3.3487 2.94955,3.3487 -0.24254,0 -0.73806,-0.48068 -1.10115,-1.06817 z M 339.87244,280.25 c -1.24387,-1.58606 -1.2085,-1.62143 0.37756,-0.37756 1.66575,1.30637 2.19548,2.12756 1.37244,2.12756 -0.20765,0 -0.99515,-0.7875 -1.75,-1.75 z M 391.5,277 c 0.99549,-1.1 2.03498,-2 2.30998,-2 0.275,0 -0.31449,0.9 -1.30998,2 -0.99549,1.1 -2.03498,2 -2.30998,2 -0.275,0 0.31449,-0.9 1.30998,-2 z M 223,269.62244 c 0,-0.20765 0.7875,-0.99515 1.75,-1.75 1.58606,-1.24387 1.62143,-1.2085 0.37756,0.37756 C 223.82119,269.91575 223,270.44548 223,269.62244 Z m 107.07895,-8.20577 c 0.048,-1.16495 0.28494,-1.4019 0.60416,-0.60417 0.28887,0.72187 0.25335,1.58438 -0.0789,1.91667 -0.33229,0.33229 -0.56864,-0.25834 -0.52522,-1.3125 z m 69,-1 c 0.048,-1.16495 0.28494,-1.4019 0.60416,-0.60417 0.28887,0.72187 0.25335,1.58438 -0.0789,1.91667 -0.33229,0.33229 -0.56864,-0.25834 -0.52522,-1.3125 z m 0,-11 c 0.048,-1.16495 0.28494,-1.4019 0.60416,-0.60417 0.28887,0.72187 0.25335,1.58437 -0.0789,1.91667 -0.33229,0.33229 -0.56864,-0.25834 -0.52522,-1.3125 z m -2.81899,-6.96467 c -0.68203,-0.74045 -0.84168,-1.59248 -0.35479,-1.89339 0.48689,-0.30092 1.16801,0.1897 1.51358,1.09026 0.82718,2.15559 0.37537,2.46873 -1.15879,0.80313 z m -64.22933,0.048 c 0,-0.55 0.43621,-1.675 0.96937,-2.5 0.53316,-0.825 0.96937,-1.05 0.96937,-0.5 0,0.55 -0.43621,1.675 -0.96937,2.5 -0.53316,0.825 -0.96937,1.05 -0.96937,0.5 z M 337.5,233 c 0.99549,-1.1 2.03498,-2 2.30998,-2 0.275,0 -0.31449,0.9 -1.30998,2 -0.99549,1.1 -2.03498,2 -2.30998,2 -0.275,0 0.31449,-0.9 1.30998,-2 z m 22.25,-12.66228 c 0.6875,-0.27741 1.8125,-0.27741 2.5,0 0.6875,0.27741 0.125,0.50439 -1.25,0.50439 -1.375,0 -1.9375,-0.22698 -1.25,-0.50439 z m 7.51903,-0.0307 c 0.97297,-0.25354 2.32297,-0.23687 3,0.0371 0.67703,0.27393 -0.11903,0.48137 -1.76903,0.46099 -1.65,-0.0204 -2.20394,-0.2445 -1.23097,-0.49804 z"
         id="path3" />
      <path
         style="fill:#fd7836;fill-opacity:1"
         d="m 127.18474,544.25 c -3.35197,-2.6125 -6.11244,-4.975 -6.13438,-5.25 -0.0881,-1.10455 14.70388,-21.495 15.54509,-21.42857 1.37049,0.10822 3.60519,-2.43777 2.99967,-3.41752 -0.95797,-1.55003 21.75946,-33.89023 23.47306,-33.41591 0.47292,0.13091 0.64833,-0.31909 0.38982,-1 -0.25852,-0.6809 4.71796,-8.663 11.05884,-17.738 6.34087,-9.075 14.33108,-20.60947 17.75601,-25.63215 20.07907,-29.44608 30.66321,-44.26279 28.12197,-39.36785 -0.63839,1.22967 -0.50744,1.28056 0.72666,0.28239 0.82796,-0.66969 2.7028,-1.00048 4.16629,-0.7351 2.11361,0.38327 2.5368,0.15911 2.05752,-1.08986 -0.33186,-0.8648 -1.14861,-1.36314 -1.81502,-1.10742 -0.6664,0.25572 -1.75281,0.13049 -2.41423,-0.2783 -0.88057,-0.54422 -0.66436,-1.38972 0.80741,-3.15748 1.10551,-1.32782 2.02498,-1.94173 2.04328,-1.36423 0.0183,0.5775 -0.52923,1.65623 -1.21673,2.39718 -1.01729,1.09637 -0.94268,1.23963 0.40074,0.76947 1.21598,-0.42555 2.62284,0.9972 5.34163,5.40199 4.30653,6.97714 11.1008,12.69257 18.96145,15.95062 3.07166,1.27314 5.46363,2.66938 5.31551,3.10277 C 253.77628,420.07742 218.09835,458 216.35797,458 c -0.71236,0 -1.08712,0.5625 -0.83281,1.25 0.25432,0.6875 -5.39741,7.55 -12.55939,15.25 -7.16198,7.7 -17.13462,18.5 -22.16141,24 -5.02679,5.5 -13.22669,14.32052 -18.22199,19.60115 -14.63192,15.46769 -26.02179,27.95949 -26.88206,29.48281 -1.19157,2.10996 -1.87311,1.84312 -8.51557,-3.33396 z m 18.19682,-35.80194 c 0.34149,-0.88992 0.17385,-1.29132 -0.39301,-0.94098 -0.5437,0.33602 -0.98855,1.0344 -0.98855,1.55194 0,1.43843 0.71677,1.12146 1.38156,-0.61096 z m 100.12477,-10.16554 -4.57942,-6.78252 4.74567,-4.15792 c 2.61011,-2.28686 5.99592,-4.89647 7.52401,-5.79914 2.43791,-1.4401 2.70551,-1.45139 2.18389,-0.0921 -0.32695,0.85202 -0.14446,1.54913 0.40554,1.54913 0.55,0 1.27694,-0.72169 1.61542,-1.60375 0.33965,-0.88511 1.26098,-1.35603 2.05606,-1.05093 0.97836,0.37543 1.25513,0.0694 0.86253,-0.95372 -0.31796,-0.8286 -1.21842,-1.26083 -2.00101,-0.96053 -2.83905,1.08945 -0.0421,-1.47731 13.93907,-12.79167 C 299.97227,443.21143 311,433.93196 311,433.03937 c 0,-1.52723 -4.96686,-4.56206 -20.5402,-12.55039 -29.30832,-15.03368 -45.4995,-24.68072 -48.20359,-28.72068 -2.39193,-3.57359 -4.52946,-13.66291 -2.65315,-12.52309 0.49332,0.29968 1.4907,-0.0974 2.2164,-0.88232 1.12009,-1.21154 0.95408,-1.36094 -1.09859,-0.98872 -2.31472,0.41974 -2.38722,0.26984 -1.69649,-3.50749 0.75755,-4.14272 1.89258,-6.1934 2.09404,-3.78335 0.0651,0.77917 0.033,1.86667 -0.0714,2.41667 -0.10441,0.55 0.36588,0.45392 1.0451,-0.21351 0.67921,-0.66744 1.16067,-3.17709 1.06989,-5.57702 -0.13513,-3.57256 0.51496,-5.33684 3.58649,-9.73333 2.06334,-2.95342 4.08514,-5.39376 4.49289,-5.42299 1.16269,-0.0834 12.70024,7.85166 12.73106,8.75587 0.0152,0.44496 -0.41727,0.53408 -0.96097,0.19806 -0.5703,-0.35247 -0.73243,0.0565 -0.38321,0.96651 0.4729,1.23235 0.91294,1.32216 2.01144,0.41049 1.14564,-0.9508 1.28198,-0.81661 0.73603,0.72448 -0.52116,1.47112 -0.39403,1.637 0.5721,0.74645 1.38352,-1.27528 8.46768,2.58236 25.41593,13.84007 14.70615,9.76842 44.58733,29.08496 50.05722,32.35923 11.95779,7.15793 15.84273,14.06135 13.7225,24.38446 -0.76173,3.70872 -2.08405,6.43646 -4.15699,8.57519 -4.35462,4.49283 -18.40529,12.64629 -20.44453,11.86376 -1.15649,-0.44379 -1.82877,0.003 -2.21258,1.47082 -0.34482,1.31857 -4.16198,4.30105 -10.19035,7.96207 C 298.93587,475.47265 276.07712,489 275.57356,489 c -0.2833,0 -2.44074,1.30796 -4.79432,2.90658 -3.93695,2.6741 -16.65578,10.80305 -19.48636,12.45428 -0.77282,0.45082 -2.85474,-1.73609 -5.78655,-6.07834 z M 327.5,446 c 0.33992,-0.55 0.16803,-1 -0.38197,-1 -0.55,0 -1.27811,0.45 -1.61803,1 -0.33992,0.55 -0.16803,1 0.38197,1 0.55,0 1.27811,-0.45 1.61803,-1 z m 1.17963,-3.29065 c 0.39642,-0.64142 0.0268,-0.81068 -0.95098,-0.43547 -0.87969,0.33757 -1.81798,0.0765 -2.08509,-0.58006 -0.26712,-0.6566 -0.52119,-0.37976 -0.56461,0.6152 -0.0481,1.1025 -0.52985,1.53034 -1.23346,1.09549 -0.67883,-0.41954 -0.88443,-0.27653 -0.499,0.3471 0.75444,1.22071 4.37141,0.51385 5.33314,-1.04226 z m -22.8902,-0.10849 c -0.70919,-0.76953 -1.44699,-1.24947 -1.63957,-1.06653 -0.59314,0.56346 0.91014,2.46567 1.94858,2.46567 0.53923,0 0.40017,-0.62961 -0.30901,-1.39914 z M 321,442.55902 c 0,-0.24254 -0.45,-0.7191 -1,-1.05902 -0.55,-0.33992 -1,-0.14148 -1,0.44098 0,0.58246 0.45,1.05902 1,1.05902 0.55,0 1,-0.19844 1,-0.44098 z M 329,456 c 0,-0.55 0.47656,-1 1.05902,-1 0.58246,0 0.7809,0.45 0.44098,1 -0.33992,0.55 -0.81648,1 -1.05902,1 C 329.19844,457 329,456.55 329,456 Z m 197,-7.59149 c -7.56472,-2.0079 -16,-6.2472 -16,-8.04108 0,-0.817 -0.45,-1.20735 -1,-0.86743 -0.55,0.33992 -1,0.11492 -1,-0.5 0,-0.61492 -0.45584,-0.83631 -1.01297,-0.49199 -0.55713,0.34433 -3.73064,-2.09162 -7.05224,-5.41322 -4.27655,-4.27655 -7.06702,-8.26368 -9.56042,-13.66032 -1.93662,-4.19157 -3.3042,-7.83797 -3.03906,-8.10312 0.26514,-0.26514 0.77849,0.45184 1.14077,1.59329 0.36228,1.14145 1.07837,2.07536 1.59131,2.07536 1.16735,0 1.16588,-0.0324 -0.17637,-3.88278 -0.81791,-2.34626 -1.43112,-2.91387 -2.33633,-2.16261 -1.77301,1.47147 -3.36451,-4.25347 -4.75284,-17.09699 -2.72406,-25.2003 5.61617,-50.43903 20.50425,-62.04886 2.30665,-1.79874 3.56926,-2.48307 2.8058,-1.52073 -1.26329,1.59237 -1.17801,1.67198 0.9485,0.88533 1.28513,-0.4754 2.53066,-1.44653 2.76783,-2.15806 0.28011,-0.84033 -0.0188,-1.01554 -0.85301,-0.49999 -0.82395,0.50924 -1.03818,0.39557 -0.5977,-0.31713 0.37759,-0.61096 1.36552,-0.85028 2.1954,-0.53182 0.92328,0.35429 1.39597,0.0754 1.21797,-0.71873 -0.45429,-2.02669 7.35127,-5.87301 15.39754,-7.5874 13.50979,-2.87849 30.20248,-0.81997 41.89874,5.1669 11.40282,5.83667 21.09272,18.76759 24.22557,32.32839 L 594.73226,361 h -10.73214 -10.73214 l -2.23826,-6.13864 c -2.61275,-7.16573 -8.40849,-13.38749 -15.73801,-16.89485 -3.75757,-1.7981 -6.51826,-2.29407 -12.79171,-2.29812 -11.2295,-0.007 -18.5,0.5788 -18.5,1.49121 0,0.42769 0.7875,0.53914 1.75,0.24766 0.9625,-0.29148 0.24125,0.32061 -1.60278,1.36022 -8.96012,5.05141 -17.05649,16.94477 -19.14194,28.11901 -2.66685,14.28951 -0.3384,34.95618 5.08479,45.13112 2.88485,5.41254 9.48239,12.5757 14.46424,15.70428 1.90806,1.19826 1.90701,1.21094 -0.0543,0.65567 -1.50913,-0.42725 -1.6593,-0.32356 -0.61186,0.4225 0.77734,0.55368 7.37745,0.92519 15,0.84433 15.07936,-0.15996 16.84407,-0.69734 24.24401,-7.38275 4.29108,-3.87673 7.19126,-8.75781 8.32527,-14.01164 l 0.70149,-3.25 h 11.00844 11.00845 l -0.64624,4.25 c -1.89022,12.43113 -14.73693,29.20625 -26.85589,35.0682 -11.26015,5.44654 -28.88613,7.21908 -40.67367,4.09031 z M 523,338 c 0,-0.55 -0.47656,-1 -1.05902,-1 -0.58246,0 -0.7809,0.45 -0.44098,1 0.33992,0.55 0.81648,1 1.05902,1 C 522.80156,339 523,338.55 523,338 Z M 803.84862,448.67565 C 796.53676,446.60631 790.91344,442.03012 785.6518,433.86728 784.63529,432.29027 783.45704,431 783.03347,431 c -0.99703,0 -2.17591,7.31625 -2.04686,12.70304 l 0.10068,4.20305 -9.04364,-0.0774 c -6.01245,-0.0514 -9.03164,-0.45468 -9.00782,-1.20304 0.0197,-0.61911 -0.19311,-30.03815 -0.47292,-65.37565 L 762.05416,317 H 772.02708 782 v 23.5 c 0,13.90698 0.38159,23.5 0.93478,23.5 0.51413,0 3.36055,-2.42576 6.32537,-5.39059 8.38692,-8.38692 12.37097,-10.08135 23.73985,-10.09663 11.70013,-0.0157 16.69752,2.08655 25.28449,10.63658 9.78737,9.74528 13.69488,20.83737 13.68628,38.85064 -0.009,19.22099 -2.87243,28.43914 -12.18385,39.22567 -8.88986,10.29819 -23.52853,14.96209 -35.9383,11.44998 z m 13.95266,-18.91523 c 1.8157,-0.91206 4.0657,-1.41382 5,-1.11502 1.2208,0.39042 1.3404,0.28501 0.42509,-0.37469 -0.98002,-0.70633 -0.75345,-1.36206 0.98276,-2.84433 1.79712,-1.53427 1.98055,-1.57017 0.90119,-0.17638 -1.62345,2.09638 -0.55655,2.33909 1.45218,0.33036 0.87895,-0.87895 1.01831,-1.55342 0.3659,-1.77089 -0.66253,-0.22085 -0.33631,-2.02496 0.87868,-4.8594 6.30123,-14.70018 5.36659,-32.37277 -2.30086,-43.50557 -8.58371,-12.46316 -23.34617,-13.74827 -34.71775,-3.02227 -5.65173,5.33088 -8.11392,13.01178 -8.1992,25.57777 -0.0959,14.12451 1.7728,19.52207 9.39875,27.14802 3.11727,3.11727 6.75772,5.89559 8.08988,6.17403 4.59104,0.9596 14.43005,0.0927 17.72338,-1.56163 z m 196.88462,19.05706 c -10.1348,-1.32752 -17.23562,-7.02399 -21.90006,-17.56873 -2.7169,-6.142 -3.38964,-15.73094 -3.64813,-51.99875 L 988.92924,350 H 998.96462 1009 l 0.049,21.25 c 0.059,25.52154 0.6886,39.68868 2.0325,45.75 0.5487,2.475 0.8672,4.81996 0.7079,5.21103 -0.5875,1.44142 8.0023,6.7339 12.6023,7.76478 5.8734,1.31628 10.7406,0.15947 16.3131,-3.87724 9.0858,-6.58172 10.2768,-12.2948 10.2872,-49.34857 L 1051,350 l 10.25,10e-4 10.25,0.001 v 48.99909 48.99909 l -9.25,-3.5e-4 L 1053,448 v -7.33333 c 0,-4.03334 -0.2805,-7.61384 -0.6233,-7.95667 -0.3429,-0.34283 -3.2736,2.02685 -6.5127,5.26596 -9.6116,9.61165 -18.0818,12.55698 -31.1781,10.84152 z m 35.966,-31.01576 0.1307,-3.19828 -1.3559,2.44828 c -1.7126,3.09244 -1.7486,3.94828 -0.1661,3.94828 0.7241,0 1.3162,-1.36111 1.3913,-3.19828 z m -375.18309,28.83589 c -5.82911,-2.71441 -8.59051,-5.15688 -7.89105,-6.97965 0.27102,-0.70628 -0.48858,-2.15576 -1.688,-3.22106 l -2.18078,-1.9369 1.20068,2.5 c 1.16307,2.42171 1.14844,2.43737 -0.46711,0.5 -6.15043,-7.37557 -7.42198,-17.41939 -7.37448,-58.25 l 0.034,-29.25 h 9.88701 9.88701 l 0.31194,32.75 c 0.29279,30.73862 0.44016,33.02637 2.39943,37.25 1.14812,2.475 2.85692,5.13528 3.79734,5.91173 1.25557,1.03665 1.39086,1.60887 0.50922,2.15376 -0.7272,0.44943 -0.25297,0.73982 1.20267,0.73643 1.32181,-0.003 4.20329,0.48479 6.40329,1.08416 7.89594,2.15119 17.59354,-1.52063 22.07333,-8.35765 0.90499,-1.38119 2.11574,-2.22059 2.69056,-1.86534 0.57482,0.35526 0.78918,0.23179 0.47635,-0.27437 -0.31282,-0.50616 0.0677,-3.37376 0.84549,-6.37244 C 718.64571,408.92996 719,400.35395 719,378.78207 V 350 h 9.5 9.5 v 44.36043 c 0,24.39823 0.28617,46.44823 0.63592,49 L 739.27185,448 H 729.63592 720 v -7.5 c 0,-4.125 -0.41814,-7.5 -0.92919,-7.5 -0.51105,0 -3.54855,2.76282 -6.75,6.13961 -7.79249,8.21927 -11.49364,9.81331 -22.82081,9.82866 -7.35768,0.01 -9.91809,-0.41533 -14.03119,-2.33066 z M 660.21331,414 c 0.27212,-1.8541 -3.4e-4,-3 -0.71331,-3 -0.71297,0 -0.98543,1.1459 -0.71331,3 0.24217,1.65 0.56316,3 0.71331,3 0.15015,0 0.47114,-1.35 0.71331,-3 z M 615,382.5 V 317 h 10.52952 10.52952 l -0.4879,49.75 c -0.26834,27.3625 -0.56586,51.55 -0.66116,53.75 l -0.17326,4 L 634,421 c -0.5426,-2.57778 -0.73183,-1.39207 -0.71817,4.5 0.0145,6.26075 0.15227,7.02167 0.63358,3.5 0.61216,-4.47908 0.6184,-4.46746 1.3427,2.5 0.40022,3.85 0.73087,9.1375 0.73478,11.75 L 636,448 H 625.5 615 Z m 1.66228,31.25 c -0.27741,-0.6875 -0.50439,-0.125 -0.50439,1.25 0,1.375 0.22698,1.9375 0.50439,1.25 0.27741,-0.6875 0.27741,-1.8125 0,-2.5 z M 618,409.94098 C 618,409.42344 617.55,409 617,409 c -0.55,0 -1,0.70156 -1,1.55902 0,0.85746 0.45,1.2809 1,0.94098 0.55,-0.33992 1,-1.04148 1,-1.55902 z m 15.68311,-13.12848 c -0.31922,-0.79773 -0.55618,-0.56078 -0.60416,0.60417 -0.0434,1.05416 0.19293,1.64479 0.52522,1.3125 0.33229,-0.33229 0.36781,-1.1948 0.0789,-1.91667 z m -16.73892,-52.29762 c -0.55057,-1.35712 -0.80057,-0.0562 -0.7658,3.98512 0.0485,5.63999 0.0976,5.76089 0.81741,2.01488 0.42119,-2.19182 0.39796,-4.89182 -0.0516,-6 z m 1.37992,-23.91711 c 0.62512,-1.62905 -0.21476,-2.78338 -1.46359,-2.01157 -1.13593,0.70205 -1.11012,3.4138 0.0325,3.4138 0.49116,0 1.13515,-0.63101 1.4311,-1.40223 z M 871.11831,436.25 c 0.0651,-6.4625 0.41212,-10.4 0.77121,-8.75 0.50872,2.33754 0.85717,2.67492 1.57799,1.52786 1.14659,-1.82459 1.44854,-9.02786 0.37843,-9.02786 -0.43074,0 -0.50606,-0.7875 -0.16738,-1.75 0.42773,-1.21555 0.28895,-1.4446 -0.45443,-0.75 -0.58863,0.55 -1.26244,2.35 -1.49735,4 -0.23491,1.65 -0.49454,-20.88066 -0.57695,-50.06812 L 871,318.36375 l 33.25,0.37752 c 18.2875,0.20763 35.58244,0.82645 38.4332,1.37515 5.96744,1.14859 15.33622,6.83837 19.96429,12.12458 4.70622,5.37548 7.36774,13.44266 7.27356,22.04651 -0.0434,3.96687 -0.30592,6.64999 -0.58333,5.96249 C 968.27994,357.62855 967,359.16654 967,363.05902 c 0,2.34757 0.40606,3.80805 0.96306,3.46381 1.92935,-1.19241 -1.93839,8.87941 -4.7536,12.37863 -3.34537,4.1582 -9.05264,8.31349 -10.33228,7.52263 C 952.39473,386.12592 952,386.38346 952,386.9964 c 0,0.61294 -2.25,2.0495 -5,3.19234 -2.75,1.14285 -5,2.37532 -5,2.73883 0,0.3635 1.71811,2.50341 3.81802,4.75536 4.75182,5.09587 12.68198,18.10054 12.68198,20.79718 0,1.10565 0.54246,2.01244 1.20548,2.01508 1.13003,0.005 9.53034,12.22713 15.56149,22.64228 l 2.68545,4.63747 -13.75399,0.0438 -13.75399,0.0438 -2.1184,-3.18123 c -1.16511,-1.74968 -3.91186,-6.33124 -6.10388,-10.18124 -5.90004,-10.36265 -19.9219,-33.7414 -21.42024,-35.71412 -1.09256,-1.43847 -3.23164,-1.73296 -13.30192,-1.83132 -6.6,-0.0645 -12.5625,-0.0806 -13.25,-0.0359 -0.96519,0.0628 -1.25,5.89136 -1.25,25.58132 V 448 h -11 -11 z m 72.24332,-5.75 c -0.31659,-0.825 -0.96334,-1.5 -1.43723,-1.5 -0.4739,0 -0.60261,0.675 -0.28603,1.5 0.31659,0.825 0.96334,1.5 1.43723,1.5 0.4739,0 0.60261,-0.675 0.28603,-1.5 z M 892,424.55902 c 0,-0.24254 -0.45,-0.7191 -1,-1.05902 -0.55,-0.33992 -1,-0.14148 -1,0.44098 0,0.58246 0.45,1.05902 1,1.05902 0.55,0 1,-0.19844 1,-0.44098 z m -17.85289,-36.07324 c 0.38769,-5.2937 -0.10437,-8.63023 -1.17517,-7.96844 -0.56544,0.34946 -0.94742,3.323 -0.84885,6.60787 0.17978,5.99162 1.61423,6.95587 2.02402,1.36057 z m 62.82641,-15.09036 c 14.68735,-8.33065 13.10427,-28.83216 -2.6378,-34.16057 -1.75413,-0.59374 -11.66972,-1.1246 -22.25,-1.19121 L 893,337.92347 l -0.12671,8.78827 c -0.0697,4.83354 -0.15369,10.13826 -0.18667,11.78826 -0.033,1.65 0.024,6.52891 0.1267,10.84202 L 893,377.18405 912.25,376.84202 931.5,376.5 Z M 873.77364,343.75 c 0.0326,-2.8875 0.12248,-5.475 0.19971,-5.75 0.0772,-0.275 0.30725,-2.61087 0.51114,-5.19083 0.28206,-3.56907 0.0567,-4.57032 -0.94254,-4.18689 -0.95951,0.3682 -1.32126,3.18053 -1.34298,10.44083 -0.0163,5.46529 0.31792,9.93689 0.74282,9.93689 0.42491,0 0.79923,-2.3625 0.83185,-5.25 z m 220.77616,103.33062 c -0.3125,-0.50566 0.111,-1.59852 0.941,-2.42857 1.8904,-1.89037 1.9118,-3.39236 0.074,-5.22968 -1.2007,-1.20072 -1.446,-8.61149 -1.5037,-45.42857 L 1093.9925,350 h 9.5038 c 8.6993,0 9.5037,0.16223 9.5037,1.91667 0,1.05416 -0.5625,2.14364 -1.25,2.42105 -1,0.40351 -1,0.52017 0,0.58333 0.7752,0.049 1.25,1.57592 1.25,4.01993 0,4.74505 1.113,5.69658 3.5341,3.0213 1.112,-1.22867 2.5027,-1.76798 3.6337,-1.40903 1.2636,0.40106 1.8322,0.0768 1.8322,-1.04488 0,-0.97323 -0.502,-1.3713 -1.25,-0.9912 -0.6875,0.34936 -0.2155,-0.27652 1.0489,-1.39085 1.2643,-1.11432 2.9856,-1.76251 3.825,-1.44041 1.0674,0.40962 1.4284,0.055 1.2011,-1.17983 -0.9523,-5.173 19.4175,-8.57914 30.0956,-5.03245 6.0019,1.99352 10.0199,5.1261 14.0059,10.91956 5.5985,8.1371 5.9708,11.22979 6.1263,50.8881 l 0.142,36.21871 -10.0974,0.28498 -10.0974,0.28499 v -32.35349 c 0,-36.83749 -0.4974,-40.31198 -6.5291,-45.60791 -3.9788,-3.49342 -5.5706,-3.99026 -13.94,-4.35117 -4.7774,-0.20601 -6.4299,0.14191 -8.2767,1.7426 -6.4006,5.54738 -9.459,9.39714 -11.478,14.44775 -2.1189,5.30037 -2.2209,6.92451 -2.2479,35.80176 l -0.028,30.24952 -9.691,4.8e-4 c -5.33,2.7e-4 -9.9467,-0.41323 -10.2592,-0.91889 z M 134,415.60396 v -6.39604 l 14.25,-0.67181 c 7.8375,-0.36949 21.07017,-0.52877 29.40593,-0.35396 l 15.15593,0.31785 -4.02416,6.75 -4.02415,6.75 H 159.38177 134 Z m 25,-30.40507 v -6.80111 l 27.5,-0.22554 c 15.125,-0.12405 27.5,0.0485 27.5,0.38339 0,0.3349 -2.1375,3.49689 -4.75,7.02663 l -4.75,6.41771 -22.75,2e-5 L 159,392 Z m 211.36518,-23.10362 c -9.97415,-9.21836 -19.42415,-17.71466 -21,-18.88067 l -2.86518,-2.12003 10.34243,-10.28433 10.34243,-10.28433 3.86832,4.48705 c 2.12757,2.46787 3.77348,5.15194 3.65757,5.9646 -0.11591,0.81266 0.40936,1.48766 1.16728,1.5 0.75791,0.0123 2.10791,1.12826 3,2.47981 0.9573,1.45037 1.10662,2.14139 0.36438,1.6863 -0.99762,-0.61169 -1.01612,-0.24113 -0.0895,1.79262 0.64245,1.41004 1.77087,2.56371 2.50759,2.56371 0.73671,0 1.33948,0.39752 1.33948,0.88337 0,0.48585 0.7875,1.16503 1.75,1.50928 6.33447,2.26561 7.19637,2.37689 8.28165,1.06922 0.61302,-0.73864 1.72384,-1.10919 2.4685,-0.82344 0.92982,0.35681 1.19959,-0.0706 0.86122,-1.36454 -0.4962,-1.89747 4.43976,-6.50883 20.28305,-18.9492 3.37944,-2.65358 11.02944,-8.79353 17,-13.64433 l 10.85558,-8.81964 5.20579,5.68288 5.20579,5.68288 -16.69096,16.63676 c -9.18002,9.15022 -24.12263,24.14184 -33.20579,33.31472 L 388.5,378.85592 Z M 298,365.25883 c -1.375,-0.89995 -5.5375,-3.61091 -9.25,-6.02435 -3.7125,-2.41344 -6.75,-5.01439 -6.75,-5.77989 0,-0.82572 -0.6095,-1.15793 -1.49853,-0.81678 -1.45515,0.55839 -21.33272,-11.36058 -21.44662,-12.8598 -0.0302,-0.3971 4.55765,-7.47464 10.19515,-15.72786 18.29236,-26.77978 19.03059,-28.34403 13.86437,-29.37728 -5.28166,-1.05633 -22.08598,-7.90979 -21.54412,-8.78654 0.29349,-0.47488 -0.0596,-0.63579 -0.78457,-0.35758 -0.72501,0.27821 -4.11821,-0.59148 -7.54044,-1.93264 l -6.22224,-2.43848 -25.91921,15.67118 c -14.25556,8.61916 -29.13465,17.64977 -33.06465,20.06804 -4.05943,2.49791 -7.49653,4.00951 -7.95836,3.5 -0.44711,-0.49327 -2.43328,-3.34371 -4.41372,-6.33431 -2.86209,-4.32194 -3.35973,-5.72793 -2.42571,-6.85335 0.6463,-0.77874 5.46889,-4.53318 10.71687,-8.34319 5.24798,-3.81001 12.69178,-9.40177 16.54178,-12.42611 3.85,-3.02435 11.05,-8.40663 16,-11.96062 4.95,-3.55399 12.80537,-9.40324 17.45637,-12.99833 5.36333,-4.14571 9.02097,-6.31578 10,-5.93299 0.849,0.33196 5.36863,1.63986 10.04363,2.90646 4.675,1.2666 16.825,4.6497 27,7.51801 10.175,2.8683 20.83257,5.85177 23.6835,6.62994 5.53017,1.50947 11.3165,5.6233 11.3165,8.04555 0,0.80857 0.45827,1.1869 1.01837,0.84074 1.06673,-0.65928 13.92419,7.87825 22.48163,14.92811 2.75,2.26552 7.97863,6.34801 11.61917,9.07219 l 6.61917,4.95306 -2.74656,2.529 C 349.18139,318.32114 347,319.94887 347,318.93437 c 0,-0.57882 -0.48068,-0.75533 -1.06817,-0.39224 -0.5875,0.3631 -0.81765,1.31303 -0.51146,2.11096 0.31089,0.81016 0.12021,1.18101 -0.43182,0.83983 -0.5437,-0.33602 -0.98855,0.12742 -0.98855,1.02987 0,0.90245 -8.85788,10.58304 -19.68417,21.51242 -10.8263,10.92939 -20.07366,20.56757 -20.54969,21.4182 -1.08547,1.93961 -2.58256,1.88909 -5.76614,-0.19458 z M 117,355 v -7 h 58.5 c 32.175,0 58.5,0.26703 58.5,0.59341 0,0.32637 -1.89544,3.47637 -4.21209,7 L 225.57582,362 H 171.28791 117 Z m 236.10356,-67.0722 c -11.99978,-3.92133 -21.49433,-16.68424 -22.80448,-30.65462 -1.19004,-12.68952 7.19219,-27.40186 19.06206,-33.45742 8.21552,-4.19125 22.26566,-4.05891 31.33373,0.29511 7.03322,3.377 16.47769,14.18287 14.78698,16.9185 -0.32994,0.53385 -0.19556,0.97063 0.29862,0.97063 2.77739,0 4.85896,11.7912 3.33556,18.89456 -4.65915,21.72489 -25.24524,33.81962 -46.01247,27.03324 z"
         id="path2" />
    </g>
  </g>
</svg>
